<svg width="150" height="127" viewBox="0 0 150 127" fill="none" xmlns="http://www.w3.org/2000/svg">
<path fill-rule="evenodd" clip-rule="evenodd" d="M135.694 101.196C134.726 101.937 134.271 103.011 134.077 104.218C133.969 104.884 133.347 104.975 132.879 105.092C132.474 105.194 132.1 105.207 131.773 105.533C131.637 105.669 131.215 105.698 131.037 105.592C130.469 105.254 129.861 105.007 129.337 104.556C127.49 102.969 126.137 101.006 124.871 99.0038C123.578 96.9607 122.226 94.9395 121.236 92.7236C120.928 92.0339 120.916 92.0395 121.69 91.5039C122.32 92.6742 122.908 93.8623 123.588 94.9975C124.127 95.8983 124.779 96.7334 125.436 97.6758C125.591 97.2964 125.587 97.0533 125.347 96.7151C124.041 94.8709 122.8 92.985 121.816 90.8254C121.973 90.7253 122.163 90.6037 122.352 90.4837C122.396 90.5203 122.493 90.6027 122.66 90.7436V89.9746C123.127 89.8835 123.55 89.8016 124.101 89.6948C124.531 89.8906 124.735 90.6332 125.442 90.7253C125.419 91.4765 126.091 91.8508 126.429 92.3996C126.848 93.0801 127.416 93.6726 127.818 94.1756C128.272 94.1166 128.611 94.0546 128.954 94.0312C130.157 93.9488 130.128 93.9859 130.877 94.6313C131.709 95.3485 132.279 96.3519 133.352 96.8076C133.422 96.8366 133.499 96.9394 133.502 97.0111C133.536 97.7659 133.968 98.04 134.694 98.2231C135.302 98.3772 135.475 99.0038 135.504 99.6202C135.526 100.093 135.615 100.562 135.694 101.196Z" fill="#DDA619"/>
<path fill-rule="evenodd" clip-rule="evenodd" d="M28.3285 13.533C29.1897 13.9541 29.1897 13.9541 29.6531 13.0727C30.2419 12.8754 30.9536 13.2726 31.4863 12.7441C32.0855 12.8901 32.677 13.0885 33.2851 13.1704C34.267 13.3021 34.7741 14.0441 35.3286 14.6687C35.705 15.0929 36.0992 15.5186 36.4433 15.9794C36.8458 16.5185 37.3269 17.0006 37.7309 17.5382C38.0969 18.0255 38.4098 18.5519 38.7347 19.0676C38.8247 19.211 38.9403 19.3855 38.9273 19.536C38.8924 19.9368 39.0346 20.2069 39.3261 20.4942C39.8869 21.0466 39.8431 21.8573 40.0379 22.547C40.2185 23.1898 40.1149 23.9227 40.0566 24.6099C40.0347 24.8723 39.9993 25.4323 39.4079 25.0193C39.3662 24.9898 39.1595 25.2049 39.0174 25.2863C38.8674 25.3717 38.6113 25.535 38.5582 25.4897C37.9344 24.9547 37.7824 25.3372 37.4971 25.8661C37.0775 26.6448 36.8213 26.5873 35.6946 26.391C35.0089 26.271 34.2821 26.2501 33.8807 25.6688C32.7952 24.0972 31.6831 22.5363 31.5326 20.5273C31.4727 19.7222 31.2426 18.882 30.5626 18.3032C29.9769 17.8042 29.588 17.0912 28.7883 16.813C28.5472 16.729 28.3707 16.4483 28.1833 16.2413C27.785 15.7998 27.571 15.309 27.5606 14.688C27.5497 14.0431 28.0713 13.8987 28.3285 13.533Z" fill="#DDA619"/>
<path fill-rule="evenodd" clip-rule="evenodd" d="M120.357 66.0622C119.654 65.3756 119.065 64.7032 118.377 64.1458C116.404 62.5467 115.467 60.2845 114.288 58.1788C113.758 57.2333 113.909 56.1714 113.932 55.1486C113.936 54.9711 114.187 54.7987 114.334 54.6125C114.534 55.0001 114.722 55.3632 114.997 55.8932V53.9996C115.41 53.7998 115.817 53.6909 116.095 53.4437C116.441 53.137 116.831 53.1976 117.147 53.2754C117.516 53.3659 117.83 53.6665 118.201 53.8964C117.984 54.8902 118.384 55.7223 118.88 56.5894C119.324 56.472 119.849 56.7802 120.293 56.3346C120.388 56.24 120.697 56.2324 120.83 56.3107C121.919 56.9511 123.256 57.2908 123.807 58.605C123.906 58.8421 124.015 59.1482 124.214 59.2535C124.514 59.4122 124.245 59.9076 124.76 59.9269C125.184 59.9427 124.913 60.3648 124.989 60.5947C125.083 60.8795 125.212 61.1582 125.263 61.4502C125.31 61.7177 125.273 61.9995 125.273 62.2772C124.183 63.1906 123.482 64.3543 122.944 65.6507C122.072 65.7891 121.187 65.93 120.357 66.0622Z" fill="#DDA619"/>
<path fill-rule="evenodd" clip-rule="evenodd" d="M2.10109 1.39516C2.35985 1.05084 2.56134 0.763984 2.7847 0.493407C2.86644 0.395246 2.99243 0.326076 3.10958 0.261992C3.44331 0.0794033 3.68177 0.595636 4.05507 0.370833C4.34767 0.194856 4.69026 0.0366806 5.02399 0.00514717C5.30097 -0.0207916 5.71176 0.305223 5.86067 0.200451C6.19232 -0.0329981 6.39068 -0.103185 6.67912 0.212657C6.73275 0.270638 6.92903 0.226898 7.05138 0.197908C7.95626 -0.015197 7.95574 -0.01774 8.43994 0.841291C8.50606 0.655142 8.56334 0.494424 8.66746 0.20096C8.81064 0.579361 8.95122 0.848412 9.01057 1.13323C9.08346 1.48111 9.10116 1.84171 9.11782 2.19774C9.135 2.55579 9.12147 2.91538 9.32712 3.28411L9.46457 1.95056C9.51299 1.94852 9.56193 1.94649 9.61087 1.94496C9.63743 2.18095 9.68428 2.41694 9.68585 2.65345C9.69366 3.85273 9.63586 5.05507 9.70563 6.25029C9.76759 7.30462 9.58276 8.25927 8.97308 9.13102C8.74452 8.91741 8.52793 8.59343 8.26761 9.11017C7.98282 9.67472 7.52673 9.63199 6.93736 9.37312C6.83948 9.987 6.79523 10.7107 5.75446 10.4793V8.94182C5.68521 8.9286 5.61544 8.91486 5.5462 8.90113C5.38115 9.4255 5.21663 9.94987 5.0469 10.4895C4.58196 10.1854 4.20085 9.86188 4.27634 9.22206C4.29717 9.04252 4.08266 8.8462 4.01342 8.64581C3.71405 7.77407 3.71873 7.77203 2.97786 7.75118C2.83624 7.74711 2.69463 7.75067 2.55301 7.75067H2.16409C1.80484 7.39973 1.481 7.06253 1.13477 6.74923C0.397019 6.08347 0.162208 5.20206 0.0440218 4.28606C-0.0142904 3.83188 0.0861941 3.35735 0.0200722 2.9052C-0.0528181 2.40677 0.210108 2.03854 0.442315 1.68761C0.905169 0.988278 1.15768 0.967934 2.10109 1.39516Z" fill="#DDA619"/>
<path fill-rule="evenodd" clip-rule="evenodd" d="M84.9047 12.3731C84.2992 12.7749 83.7161 13.1778 83.1085 13.5404C83.0497 13.5755 82.8383 13.3665 82.6102 13.2108C82.4707 13.4555 82.376 13.6798 82.2281 13.8628C82.0542 14.079 81.8308 14.257 81.6335 14.4559C81.2337 14.8582 80.8484 15.3063 80.2574 14.6949C80.2122 14.6486 80.0747 14.6944 79.9815 14.6848C79.3177 14.6146 78.6851 14.7763 78.0171 14.2545C77.4793 13.8344 76.7946 13.544 76.2891 13.0282C75.8153 12.544 75.3249 12.0893 74.9942 11.475C74.4871 10.5315 73.9863 9.59872 74.1669 8.49149C74.2122 8.21379 74.4075 7.95898 74.584 7.58719C74.9411 7.87303 75.1827 8.06629 75.4649 8.29262C75.6961 7.54345 75.6487 6.67272 76.3594 6.01255C76.6379 6.21599 76.9071 6.41232 77.2429 6.65746V5.64585C78.1759 5.49022 79.0235 5.17692 79.9586 5.23185C80.4949 5.26338 80.9582 5.42919 81.2977 5.74706C81.734 6.15496 82.2682 6.4469 82.6243 6.96975C82.9461 7.44275 83.386 7.83844 83.7239 8.32568C84.2784 9.12673 84.4658 10.0631 84.8714 10.9155C85.0651 11.3219 84.9047 11.8895 84.9047 12.3731Z" fill="#DDA619"/>
<path fill-rule="evenodd" clip-rule="evenodd" d="M24.7707 38.89V41.8664C25.0534 41.1141 25.0045 40.3543 25.0284 39.5985C25.0378 39.2943 24.8905 38.9159 25.2679 38.7344C25.6579 38.5462 26.0697 38.36 26.4904 38.2995C26.6351 38.2787 26.9106 38.6133 26.9928 38.8325C27.0813 39.068 27.0131 39.3594 27.0131 39.6565C27.2485 39.5603 27.3885 39.449 27.514 39.4627C27.7733 39.4912 28.1294 39.7256 28.2622 39.631C28.9999 39.1006 29.8085 39.449 30.5712 39.4073C30.9164 39.3884 31.4386 39.6137 31.6042 39.8874C32.0103 40.5613 32.8298 40.7673 33.2593 41.5602C33.2734 41.8989 33.3192 42.3175 33.6795 42.7681C34.1517 43.3586 34.5547 44.092 34.4084 44.9561C34.3402 45.3579 34.3964 45.7795 34.3964 46.2693C33.4285 46.8303 32.4216 47.3755 31.4563 47.9838C30.4463 48.6206 29.5273 48.1929 28.6677 47.7529C28.0404 47.4315 27.1985 47.2809 26.9866 46.425C25.584 45.8085 25.3346 44.3646 24.5859 43.2737C24.0824 42.5402 24.098 41.6868 23.9554 40.9107C23.8377 40.2693 24.3011 39.5263 24.5073 38.8285C24.5952 38.8488 24.6832 38.8697 24.7707 38.89Z" fill="#DDA619"/>
<path fill-rule="evenodd" clip-rule="evenodd" d="M52.2447 53.8984C51.647 53.3146 51.0133 52.6956 50.3001 51.9988C50.3001 51.5375 50.2511 50.9877 50.3251 50.4542C50.3532 50.2558 50.6463 50.0554 50.8644 49.939C50.9472 49.8942 51.1602 50.0824 51.3153 50.1653C51.5215 49.7666 51.6423 49.2269 52.3394 49.3581C52.4691 49.3831 52.6529 49.3907 52.7414 49.321C53.0886 49.0464 53.4666 48.7661 53.9107 48.8867C54.7068 49.1033 55.594 49.23 56.2146 49.7666C57.4412 50.828 58.6075 51.9815 59.2182 53.5145C59.5821 54.4284 59.9106 55.3724 60.0866 56.3326C60.1632 56.7527 60.0471 57.3295 59.5571 57.6641C58.7507 58.216 57.9744 58.8121 57.1502 59.3369C56.8696 59.5155 56.4739 59.6391 56.1464 59.6111C54.0831 59.4366 52.6128 58.4881 52.0031 56.2116C51.9141 55.88 51.7011 55.5346 51.7469 55.2244C51.8136 54.7753 52.0645 54.3516 52.2447 53.8984Z" fill="#DDA619"/>
<path fill-rule="evenodd" clip-rule="evenodd" d="M55.7847 104.011C55.7284 103.733 55.6722 103.455 55.616 103.177C55.6123 104.28 54.4195 104.693 54.1597 105.632C54.067 105.968 53.5589 106.117 53.3486 105.93C53.0055 105.627 52.7717 105.848 52.578 105.972C52.0631 106.299 51.6257 106.268 51.0999 105.968C49.5843 105.102 48.0208 104.306 47.1274 102.72C46.0507 102.15 45.7357 100.994 45.0667 100.116C44.7413 99.6883 44.6376 99.0998 44.4106 98.5261C44.8063 97.9631 45.3811 98.1121 46.0762 98.4509C46.009 98.1309 46.0272 97.8365 45.8898 97.6549C45.6998 97.4052 45.9028 97.307 46.0106 97.2628C46.5 97.0629 47.0061 96.9164 47.409 96.539C47.5074 96.4464 47.786 96.4831 47.9588 96.5339C48.2676 96.6255 48.5321 96.8182 48.8752 96.5456C48.9725 96.4688 49.2891 96.6224 49.488 96.7079C51.1973 97.4413 52.7441 98.3608 53.7562 99.9884C53.8926 100.208 54.1998 100.441 54.4294 100.65C55.088 101.248 55.2114 102.118 55.7211 102.763C56.0596 103.192 55.9856 103.568 55.7847 104.011Z" fill="#DDA619"/>
<path fill-rule="evenodd" clip-rule="evenodd" d="M141.972 39.3423C142.01 39.0865 142.047 38.8301 142.089 38.5484C142.192 38.6216 142.284 38.6506 142.308 38.707C142.671 39.5768 143.125 40.4104 143.339 41.3406C143.473 41.9255 143.645 42.4855 143.065 42.9412C142.67 43.2514 143.071 44.1425 142.183 44.0926C141.765 44.7493 141.094 44.6836 140.452 44.6389C140.308 45.0783 140.218 45.5066 140.029 45.8885C139.816 46.3188 139.135 46.4404 138.406 46.2369C138.239 46.1906 138.078 46.0325 137.926 46.0457C136.744 46.1464 136.746 46.155 136.249 45.2446C136 44.7904 135.701 44.3566 135.508 43.8811C135.274 43.3013 134.909 42.9391 134.31 42.6889C133.42 42.3171 132.842 41.5634 132.689 40.6667C132.55 39.855 132.939 39.1104 133.68 38.5255C134.048 38.9944 134.415 39.4618 134.928 40.1169C134.928 39.4466 134.921 38.9954 134.931 38.5448C134.94 38.0967 134.99 38.1883 135.716 37.8689C136.234 37.6405 136.986 37.9172 137.284 37.2143C137.796 37.195 138.308 37.1767 138.82 37.1573C139.766 37.1207 140.606 37.2214 141.047 38.2488C141.221 38.6557 141.641 38.9629 141.972 39.3423Z" fill="#DDA619"/>
<path fill-rule="evenodd" clip-rule="evenodd" d="M1.98792 46.0814C0.867492 45.8444 0.473884 45.0683 0.371838 44.3863C0.241156 43.514 -0.0613387 42.659 0.0110309 41.7369C0.104747 40.5433 0.0979786 39.3323 0.00634509 38.1386C-0.0379097 37.5593 0.342682 37.1305 0.333831 36.5889C0.331748 36.448 0.532196 36.1754 0.626954 36.181C1.35794 36.2217 1.70521 35.4486 2.4716 35.444C2.97923 35.4415 3.48425 34.9766 4.05384 34.6857C4.61509 35.2339 5.80893 34.556 6.26398 35.7649C5.96617 36.6143 6.70809 37.3604 6.95956 38.2306C6.99444 38.3522 7.12512 38.4605 7.12616 38.5755C7.13814 39.9462 7.13345 41.3163 7.13345 42.805C6.90645 42.6082 6.80805 42.5232 6.56387 42.3112C6.6404 42.6331 6.62582 42.8798 6.73828 42.9632C6.85803 43.0527 7.11055 42.9535 7.28028 43.009C7.35733 43.0339 7.39846 43.2328 7.40679 43.3558C7.41096 43.4123 7.28548 43.5369 7.23967 43.5277C6.89604 43.4621 6.5571 43.3706 6.18588 43.2801C5.93233 43.8161 5.66159 44.3883 5.45958 44.816C5.07274 44.7881 4.84157 44.7708 4.61093 44.754C5.01547 45.1527 4.55053 45.2962 4.38237 45.5413C4.21107 45.79 4.0856 46.0687 3.94971 46.3164C3.05628 46.2218 2.72307 45.6593 2.48409 44.9142C2.31488 45.3129 2.16234 45.6705 1.98792 46.0814Z" fill="#DDA619"/>
<path fill-rule="evenodd" clip-rule="evenodd" d="M106.508 109.868C105.773 109.847 105.078 109.653 104.723 110.449C104.123 109.677 104.052 109.129 104.663 108.516C105.085 108.092 105.363 107.564 105.9 107.198C106.37 106.878 106.543 106.169 106.948 105.718C107.259 105.371 107.727 105.158 108.125 104.886C108.25 105.004 108.384 105.133 108.596 105.336C108.371 105.493 108.15 105.646 107.929 105.799C107.953 105.855 107.978 105.91 108.003 105.966C108.327 105.916 108.65 105.866 109.014 105.81C109.111 105.952 109.223 106.316 109.464 106.439C110.912 107.175 111.836 108.404 112.716 109.666C113.005 110.08 113.105 110.616 113.337 111.074C113.91 112.207 114.058 112.416 113.884 113.445C113.758 114.189 113.619 114.983 113.02 115.589C112.784 115.828 112.532 116.173 112.52 116.479C112.488 117.252 112.054 117.376 111.414 117.336C111.236 117.325 111.047 117.348 110.873 117.393C109.758 117.686 109.642 117.656 109.086 116.821C108.263 115.584 107.869 114.17 107.39 112.796C107.052 111.825 106.793 110.827 106.508 109.868Z" fill="#DDA619"/>
<path fill-rule="evenodd" clip-rule="evenodd" d="M88.4518 94.6501C87.663 94.2127 86.8643 93.8297 86.2213 93.1965C85.0233 92.0145 83.7373 90.9073 82.632 89.648C81.4699 88.3241 80.2396 87.019 79.5383 85.4667C79.6123 84.8539 80.4297 85.5049 80.4453 84.7816C80.45 84.5752 80.968 84.3758 81.2554 84.18C81.9687 83.6937 82.367 83.6124 82.8866 84.1525C83.3994 84.686 83.9924 84.8773 84.6636 85.0161C85.7002 85.2307 86.4155 86.0084 87.3027 86.487C88.2518 86.9987 88.9282 87.8226 89.6992 88.5382C90.0986 88.9085 90.5947 89.1928 90.9379 89.6027C91.283 90.0152 91.6001 90.5111 91.7225 91.0181C91.7964 91.3269 91.559 91.7927 91.3174 92.0679C91.0191 92.4071 90.878 92.8969 90.3558 93.0612C90.0538 93.1558 90.0965 93.4854 90.0377 93.757C89.97 94.0687 89.8809 94.4482 89.327 94.0565C88.9396 93.7834 88.6137 94.171 88.4518 94.6501Z" fill="#DDA619"/>
<path fill-rule="evenodd" clip-rule="evenodd" d="M145.616 86.6278C143.997 85.9768 143.302 84.7663 142.61 83.5899C142.003 82.5559 141.449 81.4792 140.997 80.3719C140.547 79.2662 139.761 78.2185 140.111 76.827C141.135 77.5238 141.05 78.8558 142.033 79.7464C141.853 78.3375 141.105 77.2491 140.731 75.765C141.248 76.0417 141.435 76.1419 141.664 76.2645C141.709 76.0229 141.755 75.7696 141.801 75.5173C142.229 75.438 142.651 75.3597 143.15 75.2671C143.282 75.4736 143.455 75.7787 143.662 76.0615C144.465 77.1616 144.47 77.1566 145.93 77.6636C146.093 77.7206 146.246 77.8132 146.393 77.9047C147.524 78.6025 148.554 79.3888 149.176 80.6018C149.406 81.0504 149.719 81.8744 149.705 82.3519C149.702 82.4638 149.798 82.595 149.881 82.6896C150.094 82.9302 149.998 83.1352 149.778 83.2567C149.14 83.6082 148.864 84.2999 148.297 84.7139C148.056 84.8904 148.013 85.1254 147.969 85.4168C147.908 85.8135 147.112 86.3277 146.741 86.2443C146.512 86.1924 146.363 85.7804 146.05 86.0841C145.886 86.2438 145.761 86.4421 145.616 86.6278Z" fill="#DDA619"/>
<path fill-rule="evenodd" clip-rule="evenodd" d="M99.634 54.3029C99.3862 54.3431 99.1263 54.3848 98.7676 54.4428C98.9092 54.7022 99.0102 54.8863 99.1159 55.0796C98.4417 55.7382 97.7399 56.4238 97.0162 57.1313C96.8996 57.1313 96.7569 57.1104 96.6226 57.1343C95.0299 57.4222 93.9694 56.5393 93.0848 55.4748C92.3939 54.6432 91.7998 53.7272 91.3375 52.7278C91.0491 52.1037 90.7913 51.529 90.9975 50.6812C91.4807 51.7187 91.9113 52.6423 92.3418 53.5665C92.4184 53.5421 92.4949 53.5182 92.5719 53.4937C92.5371 53.3178 92.5319 53.1291 92.4621 52.9673C92.1742 52.299 91.8467 51.646 91.5754 50.9721C91.4552 50.6735 91.1974 50.3017 91.854 50.1629C92.0565 50.1202 92.1752 49.6935 92.3298 49.4407C92.4652 49.2189 92.5964 48.9946 92.7037 48.8156C93.3675 48.7561 93.3737 49.3232 93.7877 49.5572C93.6913 49.2001 93.595 48.8431 93.468 48.3731C93.6804 48.2088 93.9642 47.9891 94.2479 47.7689C94.427 47.9428 94.6644 48.22 94.8847 47.7089C95.1236 47.1565 95.4766 46.9414 96.0488 47.304C96.1009 47.3371 96.2087 47.3625 96.243 47.3351C96.9058 46.8015 97.2963 47.333 97.6029 47.7409C98.335 48.7159 98.6796 49.8867 99.118 51.0006C99.2211 51.262 99.4455 51.8759 98.6906 51.9054C98.6479 51.9069 98.6151 52.1363 98.5781 52.2594C98.7353 52.2965 98.9769 52.4155 99.0368 52.3565C99.4601 51.942 99.6881 52.4831 99.6465 52.5783C99.3919 53.1626 99.9818 53.7272 99.634 54.3029Z" fill="#DDA619"/>
<path fill-rule="evenodd" clip-rule="evenodd" d="M94.4925 24.7048C94.6591 24.8675 94.8262 25.0308 95.0798 25.278C95.1261 24.8858 95.1646 24.5624 95.2068 24.2094C95.791 24.0899 96.3934 23.9393 97.0051 23.8508C97.3748 23.7974 97.7653 23.7989 98.1339 23.8544C98.415 23.8971 98.1943 24.4088 98.7186 24.4535C99.0575 24.4825 99.3178 25.045 99.5589 25.4367C99.7546 25.7545 99.4615 26.4427 100.205 26.4015C100.231 26.8516 100.256 27.3022 100.283 27.7523C100.285 27.7961 100.295 27.8393 100.302 27.883L102.411 29.9439C102.637 29.9439 102.877 29.9154 103.106 29.9505C103.458 30.0059 103.838 30.3472 103.657 30.5588C103.255 31.0293 103.976 31.3543 103.69 31.7382C102.592 32.0597 102.245 32.0953 101.352 31.9427C101.576 32.4152 101.771 32.8272 102.015 33.3449C101.873 33.4787 101.685 33.8047 101.499 33.8037C100.329 33.795 99.0981 34.0849 98.0553 33.2737C97.7725 33.0535 97.431 32.8811 97.2113 32.612C96.7099 31.9987 96.2611 31.3441 95.8035 30.6971C95.578 30.3782 95.3854 30.0365 95.1688 29.711C94.8335 29.2069 94.933 28.4806 94.3181 28.12C94.4113 27.5087 94.0583 27.0464 93.8328 26.519C93.5262 25.8023 93.7162 25.1167 94.4925 24.7048Z" fill="#DDA619"/>
<path fill-rule="evenodd" clip-rule="evenodd" d="M50.6714 4.14392C51.2248 4.14392 51.6033 4.14342 51.9813 4.14392C52.4879 4.14494 53.0361 4.06204 53.1522 4.77714C53.1647 4.85648 53.3542 4.97803 53.4448 4.96532C54.0446 4.87835 54.2003 5.43222 54.5673 5.67584C55.5633 6.33702 55.7102 7.42594 55.959 8.43298C56.1012 9.00719 55.9111 9.41916 55.2421 9.81028C54.4913 10.2492 53.5516 10.5218 53.0361 11.3193C52.5811 11.3279 52.2088 12.0232 51.6772 11.4668C51.6002 11.3864 51.4294 11.3595 51.3029 11.3615C49.5108 11.3951 48.3894 10.3901 47.4527 9.04991C46.9774 8.37042 46.3823 7.76315 46.1959 6.92649C46.1194 6.58319 46.0746 6.23123 46.0496 5.88081C46.0407 5.76586 46.11 5.56649 46.1922 5.5375C46.9133 5.28574 47.4376 4.68508 48.1369 4.44044C48.999 4.13935 49.9211 4.04882 50.6714 4.14392Z" fill="#DDA619"/>
<path fill-rule="evenodd" clip-rule="evenodd" d="M48.3949 71.4255C48.6027 71.7444 48.7552 71.9794 49.052 72.4356C49.1186 71.9525 49.1442 71.7872 49.1634 71.6214C49.2259 71.0716 49.2249 71.0726 49.9361 71.0019C50.0251 70.9927 50.162 71.0044 50.1938 70.9551C50.5181 70.4556 51.0247 70.3158 51.536 70.4663C52.1155 70.6367 52.7376 70.8503 53.1885 71.2216C54.9478 72.6701 55.9828 74.6114 56.7867 76.6713C56.9231 77.0227 56.806 77.4683 56.806 77.865C56.5951 77.8421 56.4295 77.8243 56.2635 77.806C56.2994 78.3034 56.1843 78.6721 55.5887 78.7896C55.4101 78.8252 55.1659 79.0856 55.1482 79.2611C55.0884 79.8602 54.4584 79.5683 54.2387 79.8801C53.8878 79.3343 53.2838 79.995 52.8892 79.6049C52.5112 79.2316 51.9936 78.9437 51.7437 78.5053C51.1934 77.5395 50.6665 76.5345 50.3442 75.4827C50.1797 74.9446 49.9355 74.587 49.5112 74.3429C48.8224 73.9477 48.2872 73.4467 47.9508 72.7347C47.6702 72.1401 47.6582 72.1457 48.3949 71.4255Z" fill="#DDA619"/>
<path fill-rule="evenodd" clip-rule="evenodd" d="M75.0069 55.293C75.0069 55.1552 74.9731 54.9634 75.0189 54.7915C75.0496 54.6766 75.2511 54.5983 75.2688 54.4879C75.288 54.3674 75.1433 54.229 75.1417 54.0978C75.1407 53.9813 75.3084 53.8384 75.2756 53.7525C75.2157 53.5943 75.0813 53.4478 74.9434 53.3379C74.8517 53.2647 74.6992 53.2637 74.5107 53.2138C74.5992 53.5144 74.6706 53.7565 74.7424 53.9991C74.241 53.7006 73.6839 53.4625 73.9292 52.7429C74.1364 52.8293 74.34 52.9153 74.5925 53.0211C74.6737 52.1549 73.8516 52.6055 73.535 52.1956C73.9984 52.249 74.3072 51.9372 74.7731 51.9978C74.9892 52.0257 75.2703 51.5772 75.6015 51.271C76.0612 51.6377 76.5766 52.0481 77.1795 52.5288C77.2384 52.1773 77.2806 51.9271 77.3316 51.6224C78.0131 51.4937 78.7118 51.362 79.4183 51.2288C79.7812 51.6814 80.065 52.0944 80.4107 52.4499C80.7106 52.7571 81.1229 52.9621 81.4119 53.2769C82.2272 54.1659 82.5969 55.2884 82.9322 56.3987C83.0524 56.7959 83.1847 57.4246 82.4073 57.5309C82.411 58.2602 81.6238 58.369 81.2687 58.8314C80.8235 59.4102 80.0363 59.5098 79.1866 59.1747C77.9142 58.6727 77.078 57.7023 76.2653 56.7573C75.8587 56.2838 75.4021 55.8372 75.0069 55.293Z" fill="#DDA619"/>
<path fill-rule="evenodd" clip-rule="evenodd" d="M98.4067 73.2808C98.6357 73.357 98.857 73.4303 99.1106 73.5147C99.1621 72.348 97.9277 72.0209 97.7558 70.9468C98.0058 71.0546 98.2093 71.1004 98.3567 71.2148C98.593 71.3989 98.7919 71.6278 99.0866 71.9157C98.9861 71.3308 98.9195 71.1965 98.5779 70.7962C99.3245 69.9143 99.3245 69.9143 100.206 69.9113C100.691 70.4448 101.105 71.1477 101.726 71.5179C102.411 71.9274 102.613 72.6262 103.119 73.1272C103.602 73.6068 103.923 74.2598 104.243 74.8727C104.419 75.2084 104.568 75.6371 104.511 75.9901C104.438 76.4361 104.244 77.0917 103.921 77.2184C103.39 77.4274 103.508 77.7941 103.341 78.1094C103.112 78.5402 102.799 78.9593 102.224 79.0519C101.888 79.1058 101.488 79.356 101.242 79.2477C100.643 78.9837 100.024 78.6475 99.5807 78.1862C98.7445 77.3155 97.9969 76.3578 97.2815 75.3874C97.1019 75.1443 97.1847 74.717 97.1316 74.2364C97.37 74.4246 97.4648 74.4989 97.6658 74.657C97.5616 73.9496 98.1947 73.707 98.4067 73.2808Z" fill="#DDA619"/>
<path fill-rule="evenodd" clip-rule="evenodd" d="M90.9417 124.152C90.5538 123.944 90.3669 123.844 90.1857 123.746C89.8666 124.873 89.7874 124.931 88.8445 124.525C89.0934 125.091 89.2928 125.544 89.5099 126.036C89.2637 126.176 89.0117 126.319 88.7571 126.464C88.2968 126.015 87.8298 125.558 87.3196 125.059C87.0124 125.735 87.8579 126.048 87.7746 126.7C87.016 126.803 86.5761 126.299 86.1393 125.836C85.9008 125.582 85.7717 125.229 85.5259 124.985C84.4305 123.898 83.4465 122.724 82.5291 121.493C82.4469 121.383 82.3328 121.294 82.2308 121.199C81.6779 120.683 81.0984 120.185 81.0573 119.346C81.6091 119.016 81.9023 119.524 82.2776 119.839C82.6593 119.222 81.7763 119.14 81.8158 118.685C81.8497 118.137 82.9175 118.836 82.6463 117.94H84.1837C84.6237 118.243 85.0699 118.542 85.5072 118.853C85.9461 119.165 86.2361 119.613 86.7734 119.867C87.2951 120.114 87.6408 120.697 88.1 121.092C88.3994 121.35 88.5894 121.704 89.0679 121.82C89.4141 121.903 89.599 122.417 90.1248 122.351C90.2711 122.332 90.5351 122.59 90.6095 122.774C90.7517 123.124 90.7954 123.511 90.9417 124.152Z" fill="#DDA619"/>
<path fill-rule="evenodd" clip-rule="evenodd" d="M81.1855 31.383C81.6739 31.4145 82.0112 31.1679 82.4579 31.4827C82.2309 31.559 82.0664 31.6144 81.8868 31.675C82.0544 32.2309 82.2408 32.7832 82.3778 33.3467C82.4126 33.4912 82.3351 33.7765 82.2325 33.8187C81.6629 34.0537 81.4906 34.6523 81.047 34.9804C80.8507 35.1258 80.5565 35.1731 80.2999 35.2016C80.1713 35.2153 80.0198 35.0256 79.8912 35.0389C79.7344 35.0551 79.5907 35.1889 79.4257 35.2804C79.182 34.4392 79.1945 34.4051 78.235 34.0857C77.6607 33.8945 77.5415 33.3432 77.1343 32.9963C77.0432 33.186 76.9552 33.3691 76.8568 33.5746C76.7137 33.4281 76.4726 33.2949 76.4731 33.1626C76.4804 31.5102 76.4789 31.473 75.7067 30.4828C75.2715 31.2299 76.1056 31.6622 76.1508 32.3931C75.9442 32.3616 75.6354 32.385 75.5995 32.299C75.2366 31.4374 74.6837 30.6237 75.2507 29.5902C75.4266 29.2693 75.4584 29.1009 75.8536 29.0943C76.0972 29.0907 76.3591 28.9509 76.5762 28.8166C77.139 28.4692 77.681 28.0908 78.2824 27.6906C78.4198 27.8909 78.5469 28.0766 78.5161 28.0313C78.9904 28.3543 79.4851 27.4846 79.5642 28.3914C79.5871 28.6488 80.176 28.0349 80.176 28.7088C80.176 28.9692 80.6659 29.2301 80.9121 29.4707C80.8242 29.6934 80.7409 29.906 80.657 30.1186C80.7268 30.1659 80.7966 30.2132 80.8669 30.2605C80.9902 30.0311 81.1136 29.8018 81.2693 29.5134C81.5229 29.9345 81.6702 30.1781 81.8634 30.498C81.6535 30.7717 81.4198 31.0773 81.1855 31.383Z" fill="#DDA619"/>
<path fill-rule="evenodd" clip-rule="evenodd" d="M33.4582 72.8139C33.1312 72.4111 32.8725 72.0922 32.5851 71.7372C32.4388 72.0297 32.3456 72.2153 32.2243 72.4574C31.6781 72.2072 31.3106 71.7942 30.9976 71.3634C30.3062 70.4108 29.7715 69.36 29.0707 68.4059C28.6396 67.8195 28.6141 67.0825 28.7844 66.3196C29.4315 66.1914 29.5716 66.9345 30.111 67.1222V65.7718C31.1304 65.6314 32.1129 65.4961 33.0136 65.3726C33.9586 66.2016 34.5807 67.0972 35.0217 68.1317C35.2737 68.7212 35.7928 69.1637 35.9505 69.8381C36.013 70.1046 35.6631 70.4632 36.0937 70.6615C36.101 70.6646 35.9656 70.9891 35.9615 70.9875C35.2586 70.7399 35.0222 71.7357 34.3459 71.576C34.3022 71.5653 34.1824 71.8206 34.1153 71.9605C34.0408 72.1141 34.0075 72.2901 33.9159 72.4315C33.8482 72.5373 33.717 72.6034 33.4582 72.8139Z" fill="#DDA619"/>
<path fill-rule="evenodd" clip-rule="evenodd" d="M64.9077 89.5894C65.1107 90.0481 65.2586 90.3823 65.47 90.8588C65.6043 90.5115 65.6663 90.3523 65.7319 90.1834C65.7954 90.2216 65.8995 90.248 65.9131 90.2979C66.0411 90.7734 66.2723 91.1798 66.6237 91.5409C66.8341 91.757 66.9861 92.0352 67.1293 92.3033C67.3818 92.7778 67.74 93.1018 68.32 93.2025C68.4111 93.0224 68.5048 92.8363 68.5486 92.7498C68.8172 92.9462 69.1093 93.1603 69.3269 93.3195C69.3269 93.4924 69.3457 93.5667 69.3243 93.5804C69.0671 93.7436 68.8042 93.8978 68.5642 94.0412C68.634 94.4201 68.6964 94.7634 68.7907 95.2776C68.3653 95.0757 68.1326 94.9648 67.7973 94.8051C67.6114 95.1703 67.425 95.5375 67.2246 95.9322C67.034 95.953 66.8107 95.9785 66.5373 96.0085V96.6249C65.824 97.1467 65.2404 97.0765 64.6219 96.5257C63.9481 95.9256 63.1885 95.4185 62.5013 94.7039C62.7902 94.5172 63.0693 94.3372 63.3754 94.1399C63.2192 93.5804 62.9386 93.0809 62.5341 92.5927C62.1295 92.1039 61.9077 91.4702 61.6167 90.9199C62.0327 90.4189 62.3612 90.7897 62.7429 90.9463C62.759 90.8065 62.8251 90.6574 62.7798 90.5567C62.495 89.9312 62.6184 89.6219 63.2218 89.595C63.7883 89.569 64.3569 89.5894 64.9077 89.5894Z" fill="#DDA619"/>
<path fill-rule="evenodd" clip-rule="evenodd" d="M24.4962 95.0741C24.7341 95.4179 24.9283 95.6991 25.1709 96.0496C25.2339 95.8578 25.3203 95.7342 25.3006 95.631C25.2037 95.13 25.0782 94.6346 24.947 94.0696H25.7723C25.8436 94.2145 25.9311 94.392 26.1039 94.7435V93.6103C26.2653 93.5549 26.4028 93.5381 26.4991 93.4684C26.7193 93.3082 27.0682 92.9445 27.1041 92.973C27.4649 93.2629 27.9106 93.088 28.2604 93.2192C28.7821 93.4145 29.2778 93.7552 29.271 94.4052C29.2689 94.5995 29.0055 94.8157 29.045 94.9789C29.0773 95.1117 29.4418 95.1412 29.5506 95.2912C29.6396 95.4138 29.6469 95.7424 29.5553 95.8141C29.1872 96.1009 29.2684 96.4722 29.2934 96.8201C29.3251 97.2544 29.1304 97.5184 28.7358 97.6278C28.3141 97.7447 28.2157 98.0087 28.1271 98.4029C28.0017 98.9598 27.6107 99.3301 26.9494 99.3026C26.7209 99.2934 26.484 99.2985 26.2622 99.3458C25.6978 99.4664 24.9866 99.3341 24.8106 98.9298C24.3811 97.9431 23.7595 97.0108 23.875 95.8497C23.9203 95.397 24.1994 95.2683 24.4962 95.0741Z" fill="#DDA619"/>
<path fill-rule="evenodd" clip-rule="evenodd" d="M70.0305 70.1199C70.3835 70.2212 70.7521 70.3264 71.2051 70.4561C71.3972 70.0091 71.4539 69.5798 71.0489 69.1806C71.5466 68.7386 71.8777 69.4049 72.3656 69.3326C72.4109 69.0921 72.4593 68.8388 72.5062 68.5906C72.8883 68.1908 73.233 68.9283 73.6948 68.5804C74.167 68.2244 74.2862 68.9929 74.6877 69.0809C74.9131 69.1302 75.124 69.3596 75.2848 69.5529C75.818 70.1917 75.9013 71.0955 76.6193 71.6534C76.7911 71.7866 76.6994 72.2449 76.738 72.6523C75.9419 72.2703 75.8935 73.5042 75.1266 73.2118C74.8907 73.5846 75.1136 74.2605 74.2508 74.3414C74.1597 74.1898 74.0171 73.9523 73.814 73.6135C73.6412 73.966 73.5573 74.1369 73.4714 74.3129C72.9883 74.4248 72.767 74.0179 72.6082 73.759C72.0808 72.8969 71.3977 72.2373 70.5142 71.7215C69.9706 71.4042 69.6723 70.8869 70.0305 70.1199Z" fill="#DDA619"/>
<path fill-rule="evenodd" clip-rule="evenodd" d="M63.1219 33.2682C62.4519 33.7809 61.9578 34.1593 61.32 34.648H60.1272C59.6628 33.9919 59.5118 33.1288 58.8271 32.5872C58.7553 31.6737 58.1087 31.1077 57.5469 30.4709C57.3683 30.268 57.4068 29.8824 57.3308 29.505C57.5359 29.4491 57.739 29.4532 57.8452 29.356C58.9349 28.3607 59.9616 28.9202 60.8301 29.5991C61.5715 30.1784 62.1973 30.9449 62.7226 31.7251C63.0204 32.1671 63.0126 32.8054 63.1219 33.2682Z" fill="#DDA619"/>
</svg>
