<svg width="208" height="70" viewBox="0 0 208 70" fill="none" xmlns="http://www.w3.org/2000/svg">
<path d="M85.4414 21.5469L86.6953 21.5352C87.75 21.5352 88.3828 21.6719 88.5938 21.9453C88.6641 22.0312 88.6992 22.1367 88.6992 22.2617C88.6992 22.6523 88.3438 22.9062 87.6328 23.0234C86.9219 23.1328 86.4492 23.3281 86.2148 23.6094L80.5547 36.4414C80.2891 37.0352 80 37.4805 79.6875 37.7773C79.3828 38.0664 79.0195 38.2109 78.5977 38.2109C78.1758 38.2109 77.7969 38.0625 77.4609 37.7656C77.1328 37.4609 76.7891 36.918 76.4297 36.1367L70.7812 23.6094C70.7109 23.5234 70.4453 23.4141 69.9844 23.2812C68.7266 22.9219 68.0977 22.582 68.0977 22.2617C68.0977 22.0195 68.2656 21.8516 68.6016 21.7578C69.1328 21.6172 69.6914 21.5469 70.2773 21.5469C70.8633 21.5469 71.1836 21.5469 71.2383 21.5469C71.293 21.5469 71.4219 21.5469 71.625 21.5469H72.2461C73.043 21.5469 73.5703 21.5938 73.8281 21.6875C74.0938 21.7734 74.2891 21.8516 74.4141 21.9219C74.6719 22.0703 74.8242 22.2969 74.8711 22.6016C74.8555 22.7109 74.7812 22.8008 74.6484 22.8711C74.5234 22.9414 74.4219 22.9805 74.3438 22.9883C74.2656 22.9883 74.168 23 74.0508 23.0234C73.9414 23.0469 73.8516 23.0703 73.7812 23.0938C73.7188 23.1094 73.6406 23.1328 73.5469 23.1641C73.375 23.2344 73.2891 23.3281 73.2891 23.4453L78.9609 36.0898C79.6641 34.2539 80.9375 31.2109 82.7812 26.9609L83.6602 24.9453C84.0586 24.0156 84.2578 23.5078 84.2578 23.4219C84.2578 23.2734 84.0977 23.1719 83.7773 23.1172C83.457 23.0547 83.1367 22.9922 82.8164 22.9297C82.4961 22.8672 82.3359 22.7578 82.3359 22.6016C82.3359 21.9531 83.0703 21.6055 84.5391 21.5586C84.7812 21.5508 85.082 21.5469 85.4414 21.5469ZM90.3633 23.293C90.3633 22.9492 90.5273 22.6289 90.8555 22.332C91.1914 22.0273 91.5547 21.875 91.9453 21.875C92.3438 21.875 92.7266 21.9961 93.0938 22.2383C93.4688 22.4805 93.6562 22.8008 93.6562 23.1992C93.6562 23.5977 93.5 23.9336 93.1875 24.207C92.875 24.4727 92.4922 24.6055 92.0391 24.6055C91.5859 24.6055 91.1914 24.4805 90.8555 24.2305C90.5273 23.9805 90.3633 23.668 90.3633 23.293ZM92.8125 38L91.8047 38.0117C90.7812 38.0117 90.1484 37.8555 89.9062 37.543C89.7969 37.4023 89.7422 37.2344 89.7422 37.0391C89.7422 36.8359 89.8203 36.6953 89.9766 36.6172C90.1328 36.5391 90.3047 36.4961 90.4922 36.4883C90.6875 36.4805 90.8633 36.4219 91.0195 36.3125C91.1758 36.1953 91.2539 36.0117 91.2539 35.7617V29.457C91.2539 28.7461 90.9766 28.3633 90.4219 28.3086C90.3672 28.3008 90.2969 28.293 90.2109 28.2852C90.125 28.2773 90.0625 28.2734 90.0234 28.2734C89.9844 28.2656 89.9336 28.2578 89.8711 28.25C89.8164 28.2344 89.7734 28.2188 89.7422 28.2031C89.7188 28.1875 89.6914 28.168 89.6602 28.1445C89.6055 28.1055 89.5781 27.9961 89.5781 27.8164C89.5781 27.6289 89.6953 27.4375 89.9297 27.2422C90.375 26.8828 90.9688 26.7031 91.7109 26.7031C92.3984 26.7031 92.8008 26.7305 92.918 26.7852C93.043 26.8398 93.1484 26.8984 93.2344 26.9609C93.3984 27.0703 93.4805 27.2773 93.4805 27.582V35.7617C93.4805 36.2148 93.7305 36.457 94.2305 36.4883C94.7383 36.5117 94.9922 36.7109 94.9922 37.0859C94.9922 37.5156 94.7578 37.7812 94.2891 37.8828C93.9297 37.9609 93.4375 38 92.8125 38ZM100.148 38L99.1406 38.0117C98.1172 38.0117 97.4844 37.8555 97.2422 37.543C97.1328 37.4023 97.0781 37.2344 97.0781 37.0391C97.0781 36.8359 97.1562 36.6953 97.3125 36.6172C97.4688 36.5391 97.6406 36.4961 97.8281 36.4883C98.0156 36.4805 98.1875 36.4219 98.3438 36.3125C98.5 36.1953 98.5781 36.0117 98.5781 35.7617V23.3867C98.5781 22.6758 98.2969 22.293 97.7344 22.2383C97.6797 22.2305 97.6094 22.2227 97.5234 22.2148C97.4375 22.207 97.375 22.2031 97.3359 22.2031C97.2969 22.1953 97.2461 22.1875 97.1836 22.1797C97.1289 22.1641 97.0859 22.1484 97.0547 22.1328C97.0312 22.1172 97.0078 22.0977 96.9844 22.0742C96.9297 22.0273 96.9023 21.9141 96.9023 21.7344C96.9023 21.5547 97.0234 21.3672 97.2656 21.1719C97.7031 20.8125 98.293 20.6328 99.0352 20.6328C99.8242 20.6328 100.285 20.6797 100.418 20.7734C100.684 20.9609 100.816 21.207 100.816 21.5117V35.7617C100.816 36.2148 101.066 36.457 101.566 36.4883C102.074 36.5117 102.328 36.7109 102.328 37.0859C102.328 37.5156 102.094 37.7812 101.625 37.8828C101.266 37.9609 100.773 38 100.148 38ZM107.227 38L106.219 38.0117C105.195 38.0117 104.562 37.8555 104.32 37.543C104.211 37.4023 104.156 37.2344 104.156 37.0391C104.156 36.8359 104.234 36.6953 104.391 36.6172C104.547 36.5391 104.719 36.4961 104.906 36.4883C105.094 36.4805 105.266 36.4219 105.422 36.3125C105.578 36.1953 105.656 36.0117 105.656 35.7617V23.3867C105.656 22.6758 105.375 22.293 104.812 22.2383C104.758 22.2305 104.688 22.2227 104.602 22.2148C104.516 22.207 104.453 22.2031 104.414 22.2031C104.375 22.1953 104.324 22.1875 104.262 22.1797C104.207 22.1641 104.164 22.1484 104.133 22.1328C104.109 22.1172 104.086 22.0977 104.062 22.0742C104.008 22.0273 103.98 21.9141 103.98 21.7344C103.98 21.5547 104.102 21.3672 104.344 21.1719C104.781 20.8125 105.371 20.6328 106.113 20.6328C106.902 20.6328 107.363 20.6797 107.496 20.7734C107.762 20.9609 107.895 21.207 107.895 21.5117V35.7617C107.895 36.2148 108.145 36.457 108.645 36.4883C109.152 36.5117 109.406 36.7109 109.406 37.0859C109.406 37.5156 109.172 37.7812 108.703 37.8828C108.344 37.9609 107.852 38 107.227 38ZM113.027 30.5703C112.738 30.5703 112.41 30.457 112.043 30.2305C111.684 29.9961 111.504 29.6953 111.504 29.3281C111.504 28.9531 111.609 28.6016 111.82 28.2734C112.031 27.9453 112.305 27.6797 112.641 27.4766C112.977 27.2656 113.367 27.0898 113.812 26.9492C114.625 26.6914 115.5 26.5625 116.438 26.5625C118.016 26.5625 119.16 26.9141 119.871 27.6172C120.59 28.3125 120.949 29.4648 120.949 31.0742L120.938 34.5312C120.938 35.3672 121.043 35.8906 121.254 36.1016C121.309 36.1562 121.48 36.2266 121.77 36.3125C122.566 36.5625 122.965 36.7539 122.965 36.8867C122.965 37.707 122.125 38.1172 120.445 38.1172C119.812 38.1172 119.398 37.9766 119.203 37.6953C119.016 37.4141 118.914 36.9023 118.898 36.1602C118.547 36.793 118.012 37.3047 117.293 37.6953C116.574 38.0859 115.805 38.2812 114.984 38.2812C114.164 38.2812 113.469 38.1758 112.898 37.9648C112.328 37.7539 111.863 37.4141 111.504 36.9453C111.152 36.4688 110.977 35.957 110.977 35.4102C110.977 34.8633 111.039 34.4258 111.164 34.0977C111.289 33.7617 111.445 33.4805 111.633 33.2539C111.82 33.0273 112.074 32.8242 112.395 32.6445C112.723 32.4648 113.027 32.3242 113.309 32.2227C113.59 32.1133 113.953 32.0156 114.398 31.9297C115.055 31.8047 115.605 31.7188 116.051 31.6719C116.496 31.6172 116.727 31.5859 116.742 31.5781C116.789 31.5703 117.055 31.543 117.539 31.4961C118.031 31.4414 118.418 31.3359 118.699 31.1797C118.699 29.6953 118.5 28.7266 118.102 28.2734C117.75 27.8828 117.172 27.6875 116.367 27.6875C115.562 27.6875 114.957 27.8945 114.551 28.3086C114.152 28.7148 113.953 29.3633 113.953 30.2539L113.965 30.5117C113.637 30.5508 113.324 30.5703 113.027 30.5703ZM118.699 32.2344C118.168 32.4297 117.566 32.5664 116.895 32.6445C116.23 32.7148 115.707 32.8008 115.324 32.9023C114.941 33.0039 114.621 33.1289 114.363 33.2773C113.77 33.6211 113.473 34.2109 113.473 35.0469C113.473 36.3906 114.254 37.0625 115.816 37.0625C117.168 37.0625 118.023 36.418 118.383 35.1289C118.594 34.3945 118.699 33.4297 118.699 32.2344ZM135.023 30.7109C135.023 31.4219 134.754 32.0469 134.215 32.5859C133.16 33.6406 131.656 34.168 129.703 34.168C129.32 34.168 128.914 34.1328 128.484 34.0625C128.055 33.9844 127.785 33.9375 127.676 33.9219V33.9102C127.082 34.4102 126.785 34.8477 126.785 35.2227C126.785 35.5664 126.953 35.7969 127.289 35.9141C127.766 36.0859 128.43 36.1797 129.281 36.1953C130.133 36.2109 130.797 36.2266 131.273 36.2422C131.75 36.25 132.266 36.2734 132.82 36.3125C133.375 36.3516 133.863 36.4297 134.285 36.5469C134.707 36.6562 135.102 36.8047 135.469 36.9922C136.219 37.3828 136.594 38.0469 136.594 38.9844C136.594 39.6875 136.41 40.3086 136.043 40.8477C135.676 41.3867 135.184 41.8125 134.566 42.125C133.34 42.7578 131.879 43.0742 130.184 43.0742C128.715 43.0742 127.422 42.8711 126.305 42.4648C125.703 42.2461 125.227 41.9219 124.875 41.4922C124.523 41.0703 124.348 40.5625 124.348 39.9688C124.348 38.8594 124.906 38.0039 126.023 37.4023C125.727 37.1133 125.523 36.8398 125.414 36.582C125.312 36.3242 125.262 36.0234 125.262 35.6797C125.262 35.3359 125.293 35.0703 125.355 34.8828C125.418 34.6953 125.516 34.5234 125.648 34.3672C125.82 34.1641 126.141 33.8867 126.609 33.5352C125.875 33.168 125.312 32.7578 124.922 32.3047C124.539 31.8438 124.348 31.2656 124.348 30.5703C124.348 29.8672 124.508 29.2578 124.828 28.7422C125.156 28.2266 125.586 27.8164 126.117 27.5117C127.195 26.8945 128.398 26.5859 129.727 26.5859C130.102 26.5859 130.801 26.6836 131.824 26.8789C132.855 27.0664 133.434 27.1602 133.559 27.1602C134.254 27.1602 134.66 26.8125 134.777 26.1172C135.777 26.1172 136.277 26.5156 136.277 27.3125C136.277 27.6953 136.16 28 135.926 28.2266C135.699 28.4453 135.434 28.5547 135.129 28.5547C134.832 28.5547 134.512 28.5391 134.168 28.5078C134.395 28.7031 134.594 29.0078 134.766 29.4219C134.938 29.8359 135.023 30.2656 135.023 30.7109ZM129.773 27.5938C128.93 27.5938 128.211 27.8398 127.617 28.332C127.031 28.8242 126.738 29.4727 126.738 30.2773C126.738 31.082 127.039 31.7422 127.641 32.2578C128.25 32.7734 128.992 33.0312 129.867 33.0312C130.742 33.0312 131.449 32.793 131.988 32.3164C132.535 31.832 132.809 31.2031 132.809 30.4297C132.809 29.6562 132.512 28.9922 131.918 28.4375C131.332 27.875 130.617 27.5938 129.773 27.5938ZM129.973 41.7031C131.176 41.7031 132.09 41.5742 132.715 41.3164C133.34 41.0664 133.773 40.7734 134.016 40.4375C134.258 40.1094 134.379 39.7148 134.379 39.2539C134.379 38.293 132.512 37.8125 128.777 37.8125C127.723 37.8125 127.195 37.8008 127.195 37.7773C126.602 38.3789 126.305 38.9531 126.305 39.5C126.305 40.9688 127.527 41.7031 129.973 41.7031ZM138.891 36.7227C137.812 35.6602 137.273 34.25 137.273 32.4922C137.273 30.7344 137.816 29.3086 138.902 28.2148C139.996 27.1133 141.387 26.5625 143.074 26.5625C144.41 26.5625 145.535 26.9961 146.449 27.8633C147.371 28.7227 147.832 29.8047 147.832 31.1094C147.832 31.7422 147.332 32.0586 146.332 32.0586H139.547C139.562 33.3242 139.973 34.3906 140.777 35.2578C141.582 36.125 142.598 36.5586 143.824 36.5586C144.637 36.5586 145.426 36.3203 146.191 35.8438C146.598 35.5938 146.855 35.4688 146.965 35.4688C147.082 35.4688 147.211 35.5273 147.352 35.6445C147.5 35.7539 147.574 35.8906 147.574 36.0547C147.574 36.4844 147.297 36.8828 146.742 37.25C146.195 37.6094 145.59 37.875 144.926 38.0469C144.262 38.2266 143.68 38.3164 143.18 38.3164C141.406 38.3164 139.977 37.7852 138.891 36.7227ZM145.676 30.8281C145.66 29.9297 145.426 29.1992 144.973 28.6367C144.52 28.0742 143.855 27.793 142.98 27.793C142.113 27.793 141.352 28.1055 140.695 28.7305C140.047 29.3555 139.703 30.0703 139.664 30.875H142.406C143.625 30.875 144.715 30.8594 145.676 30.8281ZM72.1172 51.3867C72.1172 52.4336 72.3086 53.4023 72.6914 54.293C73.0742 55.1758 73.6016 55.9219 74.2734 56.5312C75.6953 57.8203 77.5195 58.4648 79.7461 58.4648C81.9727 58.4648 83.9336 57.6172 85.6289 55.9219C85.8164 55.7344 85.9805 55.6406 86.1211 55.6406C86.2695 55.6406 86.4062 55.6953 86.5312 55.8047C86.6641 55.9141 86.7305 56.0469 86.7305 56.2031C86.7305 56.3594 86.6875 56.5352 86.6016 56.7305H86.6133C86.0273 57.7617 85.0469 58.6211 83.6719 59.3086C82.3047 59.9883 80.9023 60.3281 79.4648 60.3281C78.0273 60.3281 76.7188 60.1445 75.5391 59.7773C74.3594 59.4102 73.3125 58.8867 72.3984 58.207C71.4922 57.5273 70.7695 56.6602 70.2305 55.6055C69.6914 54.543 69.4219 53.3516 69.4219 52.0312C69.4219 50.7031 69.6758 49.4922 70.1836 48.3984C70.6914 47.2969 71.3906 46.3867 72.2812 45.668C74.1094 44.1836 76.4414 43.4414 79.2773 43.4414C80.7852 43.4414 82.2109 43.6758 83.5547 44.1445C84.2422 44.3867 84.8008 44.7344 85.2305 45.1875C85.668 45.6328 85.8867 46.1445 85.8867 46.7227C85.8867 47.3008 85.707 47.7305 85.3477 48.0117C84.9883 48.293 84.5664 48.4336 84.082 48.4336C83.5977 48.4336 83.2422 48.3945 83.0156 48.3164C82.9297 47.0977 82.5781 46.1914 81.9609 45.5977C81.3438 45.0039 80.4141 44.707 79.1719 44.707C77.0547 44.707 75.3477 45.3242 74.0508 46.5586C72.7617 47.7852 72.1172 49.3945 72.1172 51.3867ZM99.0703 60L98.0625 60.0117C97.0391 60.0117 96.4062 59.8555 96.1641 59.543C96.0547 59.4023 96 59.2344 96 59.0391C96 58.8359 96.0781 58.6953 96.2344 58.6172C96.3906 58.5391 96.5625 58.4961 96.75 58.4883C96.9453 58.4805 97.1211 58.4219 97.2773 58.3125C97.4336 58.1953 97.5117 58.0117 97.5117 57.7617L97.5234 54.3516C97.5234 52.9141 97.3516 51.8555 97.0078 51.1758C96.6328 50.4102 95.8516 50.0273 94.6641 50.0273C93.4141 50.0273 92.5391 50.4219 92.0391 51.2109C91.5859 51.9453 91.3594 53.0117 91.3594 54.4102V57.7617C91.3594 58.2148 91.6094 58.457 92.1094 58.4883C92.6172 58.5117 92.8711 58.7109 92.8711 59.0859C92.8711 59.5156 92.6328 59.7812 92.1562 59.8828C91.8125 59.9609 91.3242 60 90.6914 60L89.6836 60.0117C88.6602 60.0117 88.0273 59.8555 87.7852 59.543C87.6758 59.4023 87.6211 59.2344 87.6211 59.0391C87.6211 58.8359 87.6992 58.6953 87.8555 58.6172C88.0117 58.5391 88.1836 58.4961 88.3711 58.4883C88.5664 58.4805 88.7422 58.4219 88.8984 58.3125C89.0547 58.1953 89.1328 58.0117 89.1328 57.7617V45C89.1328 44.5469 88.8516 44.2734 88.2891 44.1797C87.8984 44.1172 87.6602 44.0508 87.5742 43.9805C87.4961 43.9023 87.457 43.7773 87.457 43.6055C87.457 43.4336 87.5391 43.2773 87.7031 43.1367C87.8672 42.9961 88.082 42.8906 88.3477 42.8203C88.8164 42.6953 89.3398 42.6328 89.918 42.6328C90.8867 42.6328 91.3711 42.9258 91.3711 43.5117V50.3203C92.4336 49.1172 93.7773 48.5156 95.4023 48.5156C97.0273 48.5156 98.1562 48.9336 98.7891 49.7695C99.4297 50.5977 99.75 51.8555 99.75 53.543L99.7383 57.7617C99.7383 58.2148 99.9883 58.457 100.488 58.4883C100.996 58.5117 101.25 58.7109 101.25 59.0859C101.25 59.5156 101.016 59.7812 100.547 59.8828C100.188 59.9609 99.6953 60 99.0703 60ZM103.98 45.293C103.98 44.9492 104.145 44.6289 104.473 44.332C104.809 44.0273 105.172 43.875 105.562 43.875C105.961 43.875 106.344 43.9961 106.711 44.2383C107.086 44.4805 107.273 44.8008 107.273 45.1992C107.273 45.5977 107.117 45.9336 106.805 46.207C106.492 46.4727 106.109 46.6055 105.656 46.6055C105.203 46.6055 104.809 46.4805 104.473 46.2305C104.145 45.9805 103.98 45.668 103.98 45.293ZM106.43 60L105.422 60.0117C104.398 60.0117 103.766 59.8555 103.523 59.543C103.414 59.4023 103.359 59.2344 103.359 59.0391C103.359 58.8359 103.438 58.6953 103.594 58.6172C103.75 58.5391 103.922 58.4961 104.109 58.4883C104.305 58.4805 104.48 58.4219 104.637 58.3125C104.793 58.1953 104.871 58.0117 104.871 57.7617V51.457C104.871 50.7461 104.594 50.3633 104.039 50.3086C103.984 50.3008 103.914 50.293 103.828 50.2852C103.742 50.2773 103.68 50.2734 103.641 50.2734C103.602 50.2656 103.551 50.2578 103.488 50.25C103.434 50.2344 103.391 50.2188 103.359 50.2031C103.336 50.1875 103.309 50.168 103.277 50.1445C103.223 50.1055 103.195 49.9961 103.195 49.8164C103.195 49.6289 103.312 49.4375 103.547 49.2422C103.992 48.8828 104.586 48.7031 105.328 48.7031C106.016 48.7031 106.418 48.7305 106.535 48.7852C106.66 48.8398 106.766 48.8984 106.852 48.9609C107.016 49.0703 107.098 49.2773 107.098 49.582V57.7617C107.098 58.2148 107.348 58.457 107.848 58.4883C108.355 58.5117 108.609 58.7109 108.609 59.0859C108.609 59.5156 108.375 59.7812 107.906 59.8828C107.547 59.9609 107.055 60 106.43 60ZM124.277 60L123.27 60.0117C122.246 60.0117 121.613 59.8555 121.371 59.543C121.262 59.4023 121.207 59.2344 121.207 59.0391C121.207 58.8359 121.285 58.6953 121.441 58.6172C121.598 58.5391 121.77 58.4961 121.957 58.4883C122.152 58.4805 122.328 58.4219 122.484 58.3125C122.641 58.1953 122.719 58.0117 122.719 57.7617V44.8594C122.719 44.7188 122.434 44.5625 121.863 44.3906C121.301 44.2109 120.758 44.1211 120.234 44.1211C119.117 44.1211 118.27 44.3281 117.691 44.7422C117.113 45.1484 116.824 45.6289 116.824 46.1836C116.824 47.2852 117.289 48.1562 118.219 48.7969C118.383 48.9062 118.605 49.043 118.887 49.207C119.176 49.3711 119.41 49.5117 119.59 49.6289C119.777 49.7461 119.969 49.8906 120.164 50.0625C120.555 50.4062 120.75 50.7969 120.75 51.2344C120.75 51.6719 120.602 52.0117 120.305 52.2539C120.016 52.4961 119.664 52.6172 119.25 52.6172C118.844 52.6172 118.555 52.582 118.383 52.5117C118.328 51.6289 118.145 50.9531 117.832 50.4844C117.527 50.0078 117.012 49.7695 116.285 49.7695C115.098 49.7695 114.164 50.1484 113.484 50.9062C112.812 51.6641 112.477 52.6836 112.477 53.9648C112.477 55.2461 112.906 56.3594 113.766 57.3047C114.633 58.25 115.723 58.7227 117.035 58.7227C117.613 58.7227 118.328 58.4492 119.18 57.9023C119.422 57.7773 119.629 57.7148 119.801 57.7148C120.168 57.7148 120.352 57.8789 120.352 58.207C120.352 58.3867 120.297 58.5352 120.188 58.6523C119.297 59.7617 117.957 60.3164 116.168 60.3164C114.387 60.3164 112.926 59.7891 111.785 58.7344C110.652 57.6797 110.086 56.2852 110.086 54.5508C110.086 53.0352 110.555 51.7109 111.492 50.5781C111.953 50.0234 112.555 49.582 113.297 49.2539C114.047 48.9258 114.887 48.7617 115.816 48.7617C116.129 48.7617 116.367 48.7695 116.531 48.7852C115.477 47.9336 114.949 46.9844 114.949 45.9375C114.949 44.8828 115.469 43.9766 116.508 43.2188C117.547 42.4609 118.805 42.082 120.281 42.082C121.391 42.082 122.406 42.3828 123.328 42.9844C124.258 43.5781 124.801 44.3008 124.957 45.1523V53.7656C125.223 53.5625 125.891 53.0742 126.961 52.3008C129.047 50.7852 130.09 49.9609 130.09 49.8281C130.09 49.6484 129.793 49.4648 129.199 49.2773C129.223 48.5664 129.879 48.2109 131.168 48.2109H132.762C134.73 48.2109 135.715 48.3203 135.715 48.5391C135.715 48.6406 135.602 48.8047 135.375 49.0312C135.156 49.25 134.93 49.4258 134.695 49.5586C134.18 49.5586 133.586 49.7344 132.914 50.0859C132.25 50.4375 131.43 50.9766 130.453 51.7031L128.426 53.2031L132.117 57.0938C132.57 57.5547 132.973 57.9102 133.324 58.1602C133.684 58.4023 134.016 58.5625 134.32 58.6406C134.625 58.7109 134.852 58.7656 135 58.8047C135.156 58.8359 135.27 58.8594 135.34 58.875C135.41 58.8906 135.5 58.9219 135.609 58.9688C135.719 59.0078 135.797 59.0508 135.844 59.0977C135.984 59.2227 136.055 59.375 136.055 59.5547C136.055 59.9297 135.449 60.1172 134.238 60.1172H133.664C132.922 60.1172 132.414 60.082 132.141 60.0117C131.867 59.9492 131.574 59.7695 131.262 59.4727C130.098 58.3711 128.656 56.5898 126.938 54.1289L124.945 55.4766V57.7617C124.945 58.2148 125.195 58.457 125.695 58.4883C126.203 58.5117 126.457 58.7109 126.457 59.0859C126.457 59.5156 126.219 59.7812 125.742 59.8828C125.398 59.9609 124.91 60 124.277 60ZM138.422 58.7227C137.344 57.6602 136.805 56.25 136.805 54.4922C136.805 52.7344 137.348 51.3086 138.434 50.2148C139.527 49.1133 140.918 48.5625 142.605 48.5625C143.941 48.5625 145.066 48.9961 145.98 49.8633C146.902 50.7227 147.363 51.8047 147.363 53.1094C147.363 53.7422 146.863 54.0586 145.863 54.0586H139.078C139.094 55.3242 139.504 56.3906 140.309 57.2578C141.113 58.125 142.129 58.5586 143.355 58.5586C144.168 58.5586 144.957 58.3203 145.723 57.8438C146.129 57.5938 146.387 57.4688 146.496 57.4688C146.613 57.4688 146.742 57.5273 146.883 57.6445C147.031 57.7539 147.105 57.8906 147.105 58.0547C147.105 58.4844 146.828 58.8828 146.273 59.25C145.727 59.6094 145.121 59.875 144.457 60.0469C143.793 60.2266 143.211 60.3164 142.711 60.3164C140.938 60.3164 139.508 59.7852 138.422 58.7227ZM145.207 52.8281C145.191 51.9297 144.957 51.1992 144.504 50.6367C144.051 50.0742 143.387 49.793 142.512 49.793C141.645 49.793 140.883 50.1055 140.227 50.7305C139.578 51.3555 139.234 52.0703 139.195 52.875H141.938C143.156 52.875 144.246 52.8594 145.207 52.8281ZM152.145 60L151.137 60.0117C150.113 60.0117 149.48 59.8555 149.238 59.543C149.129 59.4023 149.074 59.2344 149.074 59.0391C149.074 58.8359 149.152 58.6953 149.309 58.6172C149.465 58.5391 149.637 58.4961 149.824 58.4883C150.02 58.4805 150.195 58.4219 150.352 58.3125C150.508 58.1953 150.586 58.0117 150.586 57.7617V51.0703C150.586 50.6172 150.305 50.3438 149.742 50.25C149.352 50.1875 149.113 50.1211 149.027 50.0508C148.949 49.9727 148.91 49.8398 148.91 49.6523C148.91 49.457 149.047 49.2812 149.32 49.125C149.781 48.8438 150.359 48.7031 151.055 48.7031C151.758 48.7031 152.207 48.8047 152.402 49.0078C152.605 49.2031 152.707 49.6445 152.707 50.332C153.777 49.1211 155.25 48.5156 157.125 48.5156C158.648 48.5156 159.727 48.9336 160.359 49.7695C161 50.5977 161.32 51.8555 161.32 53.543V57.7617C161.32 58.2148 161.57 58.457 162.07 58.4883C162.578 58.5117 162.832 58.7109 162.832 59.0859C162.832 59.5078 162.59 59.7734 162.105 59.8828C161.746 59.9609 161.25 60 160.617 60L159.609 60.0117C158.586 60.0117 157.953 59.8555 157.711 59.543C157.602 59.4023 157.547 59.2344 157.547 59.0391C157.547 58.8359 157.625 58.6953 157.781 58.6172C157.938 58.5391 158.109 58.4961 158.297 58.4883C158.492 58.4805 158.668 58.4219 158.824 58.3125C158.98 58.1953 159.059 58.0117 159.059 57.7617V54.3516C159.059 52.8984 158.891 51.8359 158.555 51.1641C158.18 50.4062 157.426 50.0273 156.293 50.0273C154.926 50.0273 153.996 50.3906 153.504 51.1172C153.043 51.8047 152.812 52.9023 152.812 54.4102V57.7617C152.812 58.2148 153.062 58.457 153.562 58.4883C154.07 58.5117 154.324 58.7109 154.324 59.0859C154.324 59.5156 154.086 59.7812 153.609 59.8828C153.266 59.9609 152.777 60 152.145 60Z" fill="#339710"/>
<path fill-rule="evenodd" clip-rule="evenodd" d="M51.0699 48.4185C51.195 48.2689 51.2679 48.1454 51.3414 48.0101C51.4623 47.7884 51.5475 47.5532 51.6586 47.3295C51.8276 46.9889 51.9153 46.6211 52.0355 46.2653C52.0746 46.1491 52.1229 46.0248 52.1386 45.8944C52.1538 45.7683 52.1748 45.6398 52.2209 45.5182V45.5182C52.2413 45.4636 52.1552 45.4875 52.1285 45.5393C52.1169 45.5619 52.1063 45.5875 52.099 45.6197C52.0344 45.9053 51.9191 46.1773 51.8298 46.4563C51.7344 46.755 51.6169 47.0444 51.4904 47.3287C51.423 47.4802 51.3599 47.6386 51.2963 47.7894C51.2176 47.9763 51.0958 48.1569 51.0699 48.4185M45.9215 30.5301C45.9872 30.5789 45.9577 30.6603 46.0538 30.6953C46.1492 30.7299 46.2366 30.7163 46.3262 30.7319C46.4514 30.7536 46.553 30.6969 46.6274 30.6138C46.6379 30.6021 46.6477 30.5943 46.6571 30.5896C46.7364 30.5492 46.8189 30.5809 46.8716 30.5091V30.5091C47.0138 30.3153 46.7584 30.146 46.5292 30.2183C46.3144 30.286 46.1033 30.3599 45.9215 30.5301M35.1146 54.598C34.7365 54.5097 33.9054 54.4756 33.3733 54.5691C33.2389 54.5926 33.27 54.7682 33.3803 54.688V54.688C33.4288 54.6527 33.5188 54.6807 33.5831 54.6594C33.6755 54.6289 33.7024 54.7505 33.7952 54.7296C33.8913 54.7079 34.0099 54.7489 34.0917 54.7083C34.2041 54.6526 34.2953 54.7312 34.3971 54.7086C34.4932 54.6873 34.6039 54.6553 34.6896 54.6839C34.7901 54.7174 34.887 54.6157 34.9676 54.6918V54.6918C35.0901 54.8073 35.32 54.699 35.4877 54.7135C35.5508 54.719 35.614 54.7204 35.6775 54.7041V54.7041C35.7665 54.6811 35.7136 54.5724 35.6225 54.5595C35.596 54.5557 35.5692 54.5539 35.5426 54.5529C35.4479 54.5493 35.4131 54.4722 35.3375 54.415C35.3333 54.4118 35.3285 54.4091 35.3228 54.407C35.3064 54.4009 35.283 54.3929 35.2718 54.4063V54.4063C35.2207 54.4668 35.1712 54.5285 35.1146 54.598M36.312 57.0925C36.0249 56.9921 35.741 57.0897 35.4588 57.0559C35.1666 57.0211 34.8737 57.0218 34.581 57.0227C34.3345 57.0236 34.0882 57.0351 33.8429 57.0447C33.7643 57.0478 33.724 57.1502 33.8021 57.1409V57.1409C33.8873 57.1308 33.9696 57.1496 34.0515 57.1722C34.3088 57.2434 34.6235 57.2407 34.8904 57.247V57.247V57.247C35.0592 57.251 35.2484 57.2705 35.4165 57.287C35.443 57.2896 35.4701 57.2945 35.4985 57.3018C35.5302 57.31 35.5634 57.3097 35.5974 57.3072C35.7132 57.2986 35.8408 57.1544 35.9533 57.1832C35.9694 57.1873 35.9879 57.1935 36.0093 57.2018C36.0659 57.2237 36.0909 57.2034 36.1207 57.1505V57.1505C36.1302 57.1337 36.1581 57.1188 36.177 57.1156C36.2146 57.1092 36.2633 57.1008 36.312 57.0925M35.8799 45.5266C36.4421 45.3965 36.9686 45.1897 37.4884 44.968C38.1143 44.7012 38.7329 44.4167 39.3568 44.1447V44.1447C39.4422 44.1075 39.3675 44.0304 39.2802 44.063C38.1495 44.4847 37.0558 44.9744 35.9525 45.4407C35.9217 45.4536 35.9038 45.4973 35.8799 45.5266M28.8434 19.7215C28.7009 19.7362 28.5675 19.7396 28.4387 19.766C28.3122 19.7917 28.1855 19.7712 28.0568 19.7917C27.8846 19.8192 27.7226 19.8859 27.5476 19.8988C27.2005 19.9243 26.8638 20.0084 26.5244 20.0825C25.9924 20.1988 25.4912 20.4024 24.9826 20.5857V20.5857C24.9348 20.6029 24.9584 20.6726 25.0079 20.6614C26.279 20.3728 27.5218 19.9837 28.8109 19.7928C28.8205 19.7914 28.826 19.761 28.8434 19.7215M19.8515 52.164V52.164C19.8066 52.2581 19.6711 52.3201 19.5862 52.3807C19.5517 52.4053 19.5145 52.4259 19.4668 52.4154C19.4485 52.4113 19.4323 52.4011 19.4173 52.3898C19.293 52.2963 19.1661 52.1649 18.9851 52.1087V52.1087C18.8865 52.078 18.9247 52.2215 19.0049 52.2866C19.0381 52.3136 19.0722 52.3381 19.1089 52.3561C19.1792 52.3904 19.2147 52.4264 19.2102 52.5045V52.5045C19.209 52.5261 19.2283 52.5422 19.2446 52.5563C19.3783 52.6709 19.5023 52.8191 19.6599 52.8783C19.8448 52.9479 19.9641 53.0816 20.1111 53.1872C20.2638 53.2971 20.4049 53.4233 20.5511 53.5423C20.5896 53.5736 20.6268 53.6066 20.6671 53.6352V53.6352C20.6949 53.655 20.7353 53.6325 20.7591 53.6081C20.7605 53.6066 20.7619 53.6052 20.7632 53.6037C20.7962 53.5686 20.7671 53.5222 20.7219 53.5053C20.6227 53.468 20.625 53.4429 20.6037 53.3131C20.5901 53.2301 20.6648 53.2446 20.6793 53.2089C20.7197 53.1103 20.6085 53.0741 20.5855 53.0054C20.5825 52.9964 20.5799 52.9869 20.5802 52.9774V52.9774C20.5838 52.885 20.5808 52.8913 20.5169 52.9581C20.5026 52.9732 20.487 52.9862 20.4689 52.9947C20.4077 53.0234 20.3547 52.9575 20.3175 52.9011C20.281 52.8458 20.2476 52.8515 20.1357 52.8877C20.1161 52.8941 20.0918 52.9047 20.0942 52.9251V52.9251C20.1027 52.9976 20.057 53.023 20.0256 52.9572C20.0158 52.9365 20.0184 52.9081 20.0448 52.8636C20.0521 52.8513 20.0488 52.8326 20.0405 52.8118C20.0083 52.7307 19.8907 52.7338 19.8628 52.6512V52.6512C19.8442 52.5954 19.8578 52.5461 19.8722 52.4986C19.8865 52.4513 19.9276 52.4126 19.9769 52.4104V52.4104C20.0274 52.4082 20.0438 52.3434 19.9947 52.3316C19.9642 52.3244 19.9292 52.332 19.9017 52.322C19.8736 52.3117 19.8669 52.2771 19.8629 52.2474C19.8602 52.2276 19.8566 52.2016 19.8515 52.164M26.0905 47.4996C26.2312 47.3411 26.4449 47.3035 26.607 47.1808C26.8061 47.03 27.0173 46.8965 27.2197 46.75C27.3924 46.6249 27.5701 46.5093 27.7341 46.3701C27.9023 46.2273 28.1007 46.1224 28.2783 45.9878C28.4621 45.8484 28.6418 45.6998 28.8387 45.5793C28.9491 45.5117 29.0611 45.4504 29.1625 45.3678C29.2769 45.2745 29.3943 45.1783 29.5256 45.1149C29.659 45.0503 29.7272 44.8772 29.91 44.895C29.9542 44.8993 29.9827 44.8372 30.0007 44.7926C30.0096 44.7702 30.0063 44.7222 30.0109 44.7219C30.1324 44.7132 30.205 44.6288 30.2913 44.5553C30.3365 44.5167 30.3297 44.4263 30.2798 44.4586V44.4586C29.9943 44.6429 29.6972 44.8091 29.4134 44.9959V44.9959C29.2153 45.1262 28.9976 45.2568 28.8066 45.3974C28.6887 45.4842 28.5796 45.5832 28.4674 45.6722C28.2557 45.8401 28.0309 45.9938 27.8146 46.1511C27.4546 46.4129 27.1043 46.689 26.7384 46.9429C26.5032 47.1061 26.1185 47.2147 26.0905 47.4996V47.4996M13.2182 32.8268C13.235 32.7493 13.2688 32.6751 13.259 32.6072C13.2536 32.5698 13.2139 32.5483 13.2406 32.488C13.3484 32.2438 13.4558 31.9978 13.5363 31.7439C13.5775 31.614 13.6551 31.4938 13.6482 31.3458C13.6296 30.9499 13.621 30.5534 13.6097 30.1571C13.6086 30.1199 13.5857 30.0824 13.6171 30.0442C13.6607 29.9909 13.6256 29.9299 13.62 29.8742V29.8742C13.6114 29.7888 13.5389 29.8002 13.5179 29.8834C13.4231 30.2587 13.3663 30.6266 13.3144 30.995C13.2575 31.4003 13.2062 31.8065 13.1636 32.2135C13.1443 32.3987 13.1049 32.5788 13.0711 32.7607V32.7607C13.0642 32.7986 13.1099 32.8258 13.1484 32.8261C13.1707 32.8264 13.1932 32.8266 13.2182 32.8268M36.5328 30.2822C36.6434 30.3458 36.6952 30.2314 36.7885 30.2299C36.8809 30.2285 36.9745 30.2055 37.0689 30.1785C37.4253 30.0763 37.791 30.0053 38.1539 29.9258C38.4156 29.8686 38.682 29.8177 38.9362 29.7459C39.191 29.6741 39.4544 29.6379 39.7042 29.5524C39.8121 29.5155 39.9261 29.4995 40.0386 29.478C40.2834 29.4313 40.364 29.0836 40.1197 29.1329V29.1329C39.8697 29.1834 39.6233 29.2527 39.3766 29.319C39.2047 29.3652 39.0378 29.4333 38.8639 29.4677C38.521 29.5353 38.194 29.6568 37.8654 29.7658C37.4681 29.8977 37.071 30.0312 36.6721 30.1581C36.5969 30.1821 36.5564 30.2154 36.5328 30.2822M32.0821 55.151C32.2433 55.1327 32.3918 55.1913 32.546 55.2214C32.7283 55.257 32.9161 55.2634 33.0996 55.2939V55.2939C33.227 55.3152 33.379 55.2495 33.5054 55.2227C33.728 55.1756 33.9557 55.1858 34.1865 55.2003C34.2176 55.2022 34.2441 55.2234 34.253 55.2532C34.2537 55.2554 34.2543 55.2576 34.255 55.2598C34.2638 55.2896 34.2923 55.3093 34.3233 55.3069C34.3285 55.3065 34.3338 55.3061 34.339 55.3057C34.366 55.3036 34.3863 55.2794 34.385 55.2524V55.2524C34.3839 55.231 34.3978 55.2092 34.4184 55.2151C34.4485 55.2237 34.4694 55.2586 34.4972 55.2748C34.528 55.2929 34.544 55.2475 34.5261 55.2165V55.2165C34.5122 55.1924 34.5156 55.1624 34.5346 55.142C34.6266 55.0424 34.6399 55.0483 34.7777 55.1184C34.803 55.1313 34.8236 55.1352 34.8426 55.1195C34.8504 55.113 34.8592 55.1038 34.8646 55.0953V55.0953C34.8983 55.0425 34.9044 54.9883 34.9671 54.989C34.968 54.989 34.969 54.989 34.97 54.989C35.0537 54.9895 35.0168 54.8896 34.9336 54.8809C34.7958 54.8666 34.6604 54.8987 34.5262 54.896C34.318 54.8918 34.1102 54.8721 33.9002 54.8813C33.6973 54.8903 33.4931 54.8968 33.2911 54.8966C33.0634 54.8962 32.8351 54.8635 32.6062 54.8897C32.5273 54.8986 32.4389 54.9318 32.3714 54.9077C32.2811 54.8756 32.2004 54.8923 32.1156 54.8983V54.8983C31.9706 54.9084 31.9551 54.9632 32.0586 55.0652C32.0762 55.0826 32.086 55.1087 32.0821 55.151M25.4685 59.3586C25.4884 59.4262 25.5341 59.4545 25.5932 59.47C25.8426 59.5353 26.0829 59.6325 26.3246 59.7171C26.7602 59.8692 27.2026 59.9912 27.6476 60.1055C28.4076 60.3008 29.1752 60.4634 29.9521 60.5775C30.284 60.6263 30.6171 60.6706 30.9512 60.6997C31.3087 60.731 31.6687 60.7343 32.0265 60.7639C32.3698 60.7924 32.713 60.7718 33.056 60.7839C33.3443 60.7941 33.6318 60.7401 33.9207 60.7778C33.9783 60.7852 34.0394 60.7691 34.0985 60.7609C34.1096 60.7594 34.121 60.7584 34.1323 60.7576C34.2122 60.752 34.2404 60.658 34.1612 60.67V60.67C33.9783 60.6977 33.7895 60.687 33.6111 60.6744C33.1825 60.6443 32.7545 60.6653 32.3268 60.6476C32.0983 60.6383 31.8636 60.651 31.6419 60.6217C31.1427 60.5558 30.6401 60.5249 30.1408 60.4564C29.4694 60.3644 28.8091 60.222 28.1424 60.1106C27.9843 60.0842 27.8457 60.0037 27.6926 59.9789C27.3548 59.924 27.0208 59.851 26.7012 59.7333C26.4589 59.6441 26.2032 59.6073 25.9628 59.5022C25.8142 59.4371 25.6451 59.3729 25.4685 59.3586M22.2935 16.7877V16.7877C22.3606 16.7793 22.4113 16.7118 22.4315 16.6472C22.434 16.6391 22.4366 16.6311 22.4391 16.623C22.4514 16.5834 22.4776 16.5355 22.5162 16.5509C22.5457 16.5626 22.5708 16.5936 22.5979 16.6147C22.655 16.6591 22.6626 16.5909 22.6468 16.5204C22.6447 16.5111 22.646 16.5005 22.6529 16.4878C22.6926 16.4166 22.7651 16.3985 22.8313 16.3716C22.8655 16.3578 22.9034 16.3558 22.9295 16.3818V16.3818C22.9674 16.4194 23.0065 16.3775 23.0212 16.3262C23.0328 16.2855 23.0574 16.2524 23.1109 16.2367C23.2897 16.1843 23.4399 16.0463 23.6389 16.056V16.056C23.7549 16.0614 23.8616 15.9039 23.9694 15.8609C24.022 15.8399 24.0796 15.8278 24.1315 15.808C24.4954 15.6688 24.8581 15.5242 25.2292 15.4067C25.7219 15.2507 26.2166 15.0938 26.7207 14.9838C27.0684 14.9078 27.4128 14.7985 27.773 14.782V14.782C27.8476 14.7787 27.7943 14.7049 27.7197 14.7084C26.3753 14.7716 25.1277 15.1914 23.9129 15.737C23.8593 15.7611 23.8168 15.7143 23.7707 15.6779V15.6779C23.7548 15.6653 23.7291 15.6673 23.7109 15.6763C23.6221 15.7201 23.5344 15.7718 23.4399 15.7994C23.3932 15.813 23.3554 15.8315 23.3268 15.8551C23.237 15.9293 23.1892 16.0625 23.082 16.108C23.0769 16.1102 23.0719 16.1123 23.0669 16.1144C22.995 16.1449 22.9209 16.0693 22.8482 16.0978V16.0978C22.7506 16.1362 22.6396 16.1556 22.5579 16.2192C22.495 16.2681 22.3709 16.3123 22.2992 16.3469V16.3469C22.2512 16.37 22.2066 16.4134 22.1575 16.4342C22.095 16.4606 22.0097 16.4647 22.0118 16.5727C22.0139 16.6814 21.9332 16.7229 21.8282 16.6908C21.8209 16.6886 21.816 16.6834 21.8153 16.6759V16.6759C21.8134 16.6575 21.7836 16.6464 21.7666 16.6536C21.7122 16.6763 21.6381 16.663 21.6135 16.7263C21.6103 16.7345 21.609 16.7438 21.6121 16.7521C21.6155 16.7609 21.6214 16.7653 21.6286 16.7672C21.6971 16.7856 21.6622 16.8391 21.6009 16.8748C21.4869 16.9412 21.3702 17.0125 21.2441 17.0573C21.2223 17.0651 21.2035 17.0739 21.187 17.0837C21.1174 17.1251 21.1847 17.1883 21.2625 17.1659V17.1659C21.3263 17.1476 21.3784 17.0708 21.4401 17.0463C21.4479 17.0432 21.457 17.0405 21.4676 17.0384C21.55 17.0215 21.5947 17.0672 21.6507 17.1057C21.663 17.1143 21.6747 17.1114 21.6815 17.1034C21.6904 17.0929 21.6851 17.08 21.6778 17.0682V17.0682C21.6488 17.0203 21.6674 16.9554 21.7182 16.9318C21.8786 16.8574 22.0316 16.7746 22.1989 16.7228C22.2438 16.7089 22.2887 16.7409 22.2935 16.7877V16.7877M25.1353 17.4903C25.389 17.5363 25.598 17.438 25.8136 17.4135C25.9987 17.3924 26.1873 17.3382 26.3725 17.2944C26.5727 17.2471 26.7775 17.2403 26.974 17.1932C27.2643 17.1235 27.553 17.052 27.8506 17.023C27.9295 17.0154 28.0199 17.0276 28.0847 16.9928C28.259 16.8994 28.4487 16.9329 28.6298 16.9037C28.8113 16.8745 28.9821 16.7953 29.1711 16.7991C29.221 16.8002 29.2555 16.8343 29.325 16.8121C29.5156 16.7519 29.7178 16.7479 29.9164 16.7213C30.1065 16.6958 30.311 16.6234 30.5027 16.6218V16.6218C30.5112 16.6218 30.5197 16.6216 30.5281 16.6213C30.6656 16.6165 30.6985 16.5419 30.5625 16.5215V16.5215C30.2256 16.4706 29.8834 16.4524 29.5433 16.4707C28.8779 16.5063 28.2211 16.6158 27.5721 16.7611C27.4109 16.7971 27.246 16.8077 27.0893 16.8501C26.5545 16.9949 26.0223 17.1497 25.4922 17.3108C25.3753 17.3465 25.2524 17.391 25.1353 17.4903M40.2153 15.9307C40.1899 15.8285 40.1366 15.7974 40.0742 15.7865C40.0305 15.7788 39.9874 15.8004 39.9593 15.8349V15.8349C39.9122 15.8928 39.8223 15.8948 39.7494 15.9104C39.6564 15.9304 39.5657 16.0173 39.4443 15.9834C39.3182 15.9482 39.1725 15.9832 39.0334 15.999C38.9999 16.0029 38.9683 16.028 38.9862 16.0565V16.0565C39.0179 16.1071 39.0967 16.1658 39.156 16.159C39.2192 16.1518 39.2807 16.15 39.3363 16.1794C39.3758 16.2004 39.4285 16.202 39.4567 16.1673V16.1673C39.4771 16.1423 39.5117 16.135 39.5431 16.1428C39.6373 16.1663 39.7333 16.1434 39.8289 16.1337C39.8322 16.1334 39.8356 16.1332 39.8389 16.133C40.0183 16.1244 40.2888 16.0534 40.4627 16.0982V16.0982C40.562 16.124 40.6774 16.0893 40.7854 16.0783C40.8998 16.0667 41.0138 16.0239 41.121 16.0144C41.2292 16.0048 41.3332 15.9622 41.4412 15.9703C41.5544 15.9788 41.6733 16.0241 41.7772 15.963C41.8498 15.9204 41.9197 15.9118 41.9917 15.9199C42.0617 15.9276 42.1255 15.8857 42.1879 15.8532C42.2464 15.8229 42.314 15.8523 42.3826 15.8891C42.4082 15.9028 42.4381 15.8787 42.4351 15.8498V15.8498C42.434 15.8396 42.4374 15.8328 42.4459 15.8271C42.4867 15.7999 42.5119 15.8762 42.5546 15.8557C42.682 15.7942 42.8156 15.7167 42.9552 15.7351C43.1121 15.7559 43.249 15.6937 43.3957 15.679C43.9728 15.6211 44.5503 15.5748 45.1295 15.5482C45.169 15.5464 45.2166 15.5255 45.2464 15.5409C45.4241 15.6326 45.6057 15.5658 45.786 15.5696C45.9807 15.5737 46.1793 15.5349 46.3655 15.5587C46.6222 15.5918 46.8758 15.6211 47.1255 15.5986C47.1674 15.5948 47.1842 15.6266 47.2052 15.6631V15.6631C47.2102 15.6717 47.2185 15.6684 47.2285 15.6675C47.3793 15.6552 47.5346 15.6023 47.6378 15.6537C47.6437 15.6567 47.6495 15.6594 47.6553 15.6619C47.7473 15.7018 47.7975 15.5339 47.6973 15.5396V15.5396C47.6506 15.5423 47.5998 15.5081 47.56 15.4834C47.5502 15.4773 47.5394 15.4722 47.5281 15.4675C47.4396 15.431 47.3097 15.4453 47.2169 15.4693C47.1779 15.4794 47.1348 15.4686 47.0841 15.4163C47.0594 15.3908 47.0277 15.388 47.0033 15.4C46.8225 15.4902 46.6378 15.4095 46.457 15.4053C46.3897 15.4037 46.3178 15.4048 46.2506 15.3929C46.1205 15.3698 45.9696 15.3369 45.8384 15.3527C45.7882 15.3588 45.7387 15.3574 45.6886 15.3498C45.6672 15.3465 45.6505 15.3252 45.6475 15.3037V15.3037C45.6427 15.269 45.6057 15.253 45.5742 15.2686C45.5438 15.2838 45.5133 15.2989 45.4827 15.3142C45.4402 15.3354 45.3898 15.329 45.3467 15.3091C45.2934 15.2845 45.2353 15.2718 45.1762 15.2611C45.1471 15.2558 45.1175 15.267 45.0988 15.2899V15.2899C45.0733 15.3213 45.0286 15.3274 44.9891 15.3189C44.9262 15.3054 44.8619 15.3193 44.7995 15.3294C44.722 15.3419 44.6507 15.2808 44.5618 15.3446C44.5057 15.3849 44.4124 15.3735 44.3299 15.3768C44.3102 15.3776 44.2901 15.3745 44.2741 15.3629C44.2368 15.3357 44.2042 15.2966 44.1543 15.2767C44.1347 15.2689 44.1182 15.2871 44.1286 15.3054V15.3054C44.1425 15.3301 44.1045 15.3756 44.0762 15.3763C44.0089 15.3781 43.9526 15.4214 43.8894 15.4238C43.8079 15.4269 43.7267 15.4347 43.6456 15.4437C43.5054 15.4592 43.304 15.3979 43.2211 15.512V15.512C43.1553 15.6026 43.1157 15.4366 43.0475 15.4673C43.0392 15.471 43.035 15.4884 43.0348 15.4975V15.4975C43.0346 15.5153 43.0192 15.5045 43.0016 15.5064C42.8271 15.5244 42.663 15.5414 42.4997 15.5584C42.4769 15.5608 42.4444 15.5669 42.445 15.544C42.4457 15.5205 42.4566 15.4848 42.4105 15.4934C42.3121 15.504 42.3988 15.6187 42.3516 15.6567C42.3256 15.6778 42.2865 15.6587 42.2858 15.6252C42.2856 15.6163 42.2848 15.6077 42.2805 15.6008C42.2688 15.5826 42.24 15.5895 42.225 15.6051C42.2199 15.6104 42.2152 15.6164 42.2106 15.6226C42.1714 15.6763 42.1556 15.599 42.0926 15.5777V15.5777C42.0242 15.5583 42.0096 15.588 41.9919 15.6105C41.9754 15.6314 41.9584 15.6511 41.9406 15.6687C41.8213 15.7862 41.587 15.7176 41.4239 15.7558V15.7558C41.3278 15.7783 41.2195 15.7593 41.1291 15.7927C40.8372 15.9003 40.5289 15.8695 40.2153 15.9307M17.2516 19.3379C17.2191 19.2421 17.2865 19.1754 17.3446 19.1382C17.7122 18.9028 18.0381 18.6115 18.3976 18.3641C18.5865 18.2341 18.7755 18.0874 18.9451 17.9241C19.0794 17.7949 19.2562 17.7238 19.3956 17.5965C19.5456 17.4596 19.7314 17.3669 19.892 17.2394C20.0276 17.1318 20.1987 17.0759 20.3414 16.9697C20.5481 16.8158 20.7688 16.6799 20.9903 16.5476C21.132 16.463 21.2652 16.3558 21.4335 16.3253C21.4778 16.3173 21.4962 16.2845 21.5275 16.2658C21.6614 16.1856 21.7926 16.102 21.9372 16.0377C22.2396 15.9032 22.529 15.7393 22.8331 15.6094C23.054 15.5152 23.268 15.4083 23.4854 15.3079C23.6947 15.2113 23.906 15.1188 24.119 15.0306C24.6182 14.824 25.1262 14.6404 25.6459 14.4936C26.0526 14.3787 26.4666 14.2973 26.885 14.2285C27.2241 14.173 27.5626 14.1071 27.9039 14.0972C28.1778 14.0893 28.452 14.0416 28.7213 14.0584C28.9754 14.0742 29.232 14.0763 29.4848 14.0856C30.0701 14.1074 30.6525 14.153 31.2326 14.2207C31.5741 14.2605 31.9171 14.3078 32.258 14.3421C32.6579 14.3823 33.0503 14.4675 33.4499 14.5089C33.6838 14.5332 33.923 14.5896 34.1589 14.6295C34.3873 14.6682 34.6088 14.7384 34.8396 14.7627C35.0701 14.7871 35.2969 14.847 35.5209 14.894C35.5709 14.9045 35.6222 14.9125 35.6741 14.9202C35.9918 14.9677 36.3351 15.0986 36.6515 15.1542V15.1542C36.8135 15.1826 36.979 15.2229 37.1409 15.2412C37.3078 15.2601 37.4775 15.2839 37.6421 15.3072C37.9764 15.3546 38.3132 15.3698 38.6456 15.416C38.8486 15.4443 39.045 15.4092 39.2446 15.4193C39.6246 15.4385 40.0092 15.4134 40.3888 15.3564C40.5409 15.3336 40.6961 15.3228 40.8475 15.3464C40.9629 15.3643 41.0402 15.2744 41.1504 15.2731C41.3287 15.2712 41.5066 15.2393 41.6849 15.2238C41.7033 15.2222 41.7213 15.2203 41.7383 15.2167C41.7994 15.204 41.8788 15.1854 41.9312 15.2193V15.2193C41.9515 15.2325 41.986 15.2443 41.989 15.2202C41.9895 15.2157 41.9884 15.2105 41.9868 15.2051C41.9785 15.1768 42.0038 15.1598 42.0325 15.1529C42.0915 15.1387 42.1528 15.1231 42.2196 15.1504C42.2982 15.1824 42.3489 15.0974 42.43 15.0993C42.4425 15.0996 42.4549 15.0991 42.4672 15.098C42.781 15.0703 43.1424 15.0024 43.4458 14.9177V14.9177C43.527 14.895 43.6159 14.8887 43.6994 14.9307V14.9307C43.8199 14.9916 43.9864 14.8583 44.1196 14.837C44.3208 14.8047 44.529 14.8428 44.7283 14.8384C45.1643 14.8287 45.6021 14.7859 46.0429 14.8502C46.2634 14.8823 46.5018 14.8519 46.727 14.8803C47.2333 14.9444 47.7448 14.974 48.2432 15.0992C48.4492 15.1509 48.6669 15.1567 48.8722 15.2102C49.3079 15.3236 49.7443 15.4367 50.1706 15.5834C50.2503 15.611 50.3351 15.6234 50.3973 15.6949C50.4642 15.7717 50.5642 15.7043 50.6529 15.738C50.758 15.7777 50.8334 15.8645 50.9541 15.8881C51.0206 15.901 51.107 15.9631 51.1842 15.9783C51.4349 16.0278 51.6264 16.215 51.8781 16.2584C51.9733 16.275 52.0445 16.3562 52.1178 16.4085C52.3668 16.5862 52.6835 16.6402 52.908 16.8515C53.0309 16.9672 53.1749 17.0359 53.3304 17.0786C53.3805 17.0923 53.4334 17.1042 53.4532 17.1417C53.522 17.2726 53.6621 17.3096 53.7685 17.3866C53.8823 17.4691 54.0237 17.511 54.1319 17.6109C54.2414 17.7117 54.3484 17.8355 54.4806 17.8873C54.7175 17.98 54.8841 18.1567 55.0722 18.3071C55.1663 18.3824 55.3009 18.4243 55.3227 18.5791C55.3342 18.6604 55.4901 18.5491 55.498 18.6825C55.5026 18.7616 55.5604 18.7866 55.6366 18.8024C55.7063 18.8168 55.6961 18.9456 55.7744 18.9458C55.8516 18.9461 55.9517 18.9774 55.9458 19.0191C55.931 19.1236 56.0742 19.0803 56.0556 19.1655C56.0541 19.1723 56.0616 19.1847 56.0684 19.189C56.2934 19.3315 56.4136 19.5802 56.6322 19.7343C56.7599 19.8243 56.8654 19.9586 56.951 20.092C57.0329 20.2199 57.1374 20.3288 57.2352 20.4372C57.4059 20.626 57.5122 20.8581 57.6834 21.0435C57.6863 21.0466 57.6886 21.05 57.6905 21.0538C57.7445 21.1602 57.8585 21.2945 57.9216 21.3958V21.3958V21.3958C57.9865 21.4992 58.0266 21.6157 58.0957 21.7164C58.1392 21.7798 58.1756 21.8523 58.2165 21.9255C58.3607 22.1839 58.4926 22.4475 58.602 22.7196C58.7524 23.0938 58.9228 23.4659 58.9529 23.8764C58.959 23.9609 59.0465 23.967 59.0597 24.0403C59.1375 24.4668 59.2586 24.8837 59.2591 25.3256C59.2595 25.5106 59.3272 25.7024 59.329 25.8921C59.3326 26.2731 59.3874 26.6505 59.3353 27.037C59.3043 27.2664 59.3087 27.5079 59.283 27.743C59.2296 28.231 59.1577 28.7164 58.9891 29.18C58.8631 29.5267 58.7445 29.8762 58.5904 30.2131C58.5374 30.329 58.4469 30.4214 58.4089 30.5323C58.3695 30.6472 58.311 30.7394 58.235 30.8243C58.1749 30.8915 58.2098 30.9905 58.1325 31.0567C58.0722 31.1083 58.0024 31.1674 58.0102 31.279C58.0137 31.33 57.9327 31.3873 57.8893 31.4413C57.8268 31.5187 57.7735 31.6078 57.6979 31.669V31.669C57.6022 31.7463 57.5507 31.962 57.4673 32.0524C57.4556 32.0651 57.4444 32.0781 57.4349 32.0918C57.384 32.1651 57.3231 32.2315 57.2666 32.3009L57.0781 32.5324C57.0217 32.6018 56.9421 32.663 56.9135 32.7424C56.8586 32.8959 56.7277 32.9917 56.655 33.1335C56.5752 33.2894 56.441 33.4192 56.3221 33.5528C56.2184 33.6695 56.205 33.834 56.0869 33.946C55.9726 34.0548 55.848 34.1757 55.7918 34.3168C55.7283 34.4762 55.5784 34.5799 55.5385 34.7291C55.4911 34.9069 55.3306 34.989 55.2689 35.1383C55.1345 35.4641 54.9013 35.736 54.7628 36.0526C54.588 36.4522 54.3646 36.8276 54.2085 37.2375C54.1069 37.5043 54.0133 37.7754 53.9115 38.0422C53.8106 38.3065 53.7625 38.5927 53.7077 38.8725C53.6391 39.2224 53.6108 39.5772 53.599 39.9346C53.5873 40.2934 53.6301 40.6495 53.6241 41.0069C53.6213 41.1698 53.6487 41.3296 53.6409 41.4937C53.6324 41.6707 53.693 41.8507 53.6854 42.0277V42.0277C53.647 42.9082 53.7213 43.8005 53.6623 44.6798C53.6549 44.79 53.6496 44.9002 53.649 45.0105C53.6472 45.2858 53.5688 45.5604 53.529 45.8358C53.4631 46.2933 53.3517 46.7408 53.2443 47.1896C53.1457 47.6023 53.0107 48.0028 52.859 48.3982C52.7502 48.6825 52.6273 48.9616 52.5237 49.2478V49.2478C52.4432 49.4705 52.275 49.677 52.1746 49.8915C52.1581 49.9269 52.1417 49.9624 52.1247 49.9976C52.0285 50.1971 51.9307 50.4113 51.7863 50.5791C51.7462 50.6257 51.7029 50.6698 51.6617 50.7145C51.573 50.8108 51.5904 50.951 51.4851 51.0406C51.3883 51.1231 51.2812 51.2257 51.2452 51.3404C51.1798 51.5488 51.0257 51.6827 50.9014 51.8408C50.6123 52.2082 50.3173 52.5711 50.0154 52.928C49.9163 53.0452 49.8557 53.2011 49.6974 53.2653C49.5583 53.3217 49.537 53.5075 49.3827 53.5541C49.3265 53.571 49.3787 53.6535 49.3229 53.6935C49.2143 53.7713 49.1851 53.9253 49.0342 53.9738C48.9172 54.0112 48.9046 54.1879 48.7558 54.213V54.213C48.5874 54.2415 48.5336 54.4967 48.401 54.6043C48.3484 54.647 48.2938 54.6875 48.2429 54.7319C48.1419 54.8201 48.1038 54.9642 47.9576 55.0169V55.0169C47.721 55.1022 47.5649 55.3906 47.3679 55.547C47.3221 55.5833 47.2785 55.6221 47.2422 55.6689C47.1517 55.7857 47.0249 55.8778 46.9043 55.9674C46.7174 56.1063 46.5344 56.2506 46.3559 56.3991C46.2899 56.4538 46.2214 56.4993 46.1514 56.5454C46.1126 56.5711 46.0616 56.5567 46.0248 56.6028C45.7921 56.8938 45.4675 57.0742 45.1639 57.2714C44.981 57.3901 44.8055 57.5291 44.598 57.6167C44.5416 57.6406 44.4805 57.7195 44.4121 57.7318C44.2107 57.7679 44.0611 57.9002 43.8986 58.0011C43.8088 58.0569 43.722 58.1023 43.6229 58.1297C43.604 58.1349 43.5742 58.1265 43.5651 58.1374C43.3938 58.3412 43.1338 58.3854 42.9125 58.4969C42.6987 58.6047 42.4645 58.6731 42.2539 58.7861C41.8293 59.0141 41.3654 59.1482 40.9337 59.3584C40.8619 59.3934 40.7864 59.4207 40.7149 59.4443C40.5898 59.4854 40.5433 59.5897 40.4435 59.6756V59.6756V59.6756C40.346 59.7549 40.1853 59.752 40.0738 59.8101C39.9684 59.865 39.8416 59.8827 39.7303 59.9233C39.3088 60.0771 38.8796 60.213 38.447 60.3316C38.1623 60.4094 37.88 60.494 37.5834 60.538C36.6434 60.677 35.6995 60.7797 34.7535 60.8564C34.3929 60.8855 34.0304 60.9167 33.6686 60.9268C33.3612 60.9355 33.0512 60.946 32.7453 60.935C32.0297 60.9092 31.3137 60.8828 30.6003 60.8031C30.0549 60.7421 29.516 60.6486 28.9759 60.5562C28.6297 60.4971 28.288 60.4229 27.9483 60.335C27.4051 60.1945 26.8662 60.0429 26.3295 59.8777C25.9493 59.7605 25.5936 59.5837 25.2225 59.4488C24.9821 59.3615 24.7492 59.2444 24.5115 59.15C24.4827 59.1386 24.4536 59.1274 24.4247 59.1162C24.1353 59.0041 23.8534 58.8337 23.5802 58.6867V58.6867C23.4403 58.6113 23.2751 58.5699 23.1591 58.442C23.1061 58.3836 22.9976 58.4051 22.9335 58.3331C22.9279 58.3269 22.9223 58.3207 22.9165 58.3146C22.8321 58.2258 22.6209 58.2115 22.5566 58.1072V58.1072C22.5123 58.0353 22.4317 57.9643 22.3522 57.9395C22.1574 57.8788 22.0413 57.6926 21.8684 57.6308C21.6808 57.5639 21.578 57.3964 21.4119 57.3292C21.208 57.2468 21.1287 57.0335 20.9449 56.9375C20.9365 56.9331 20.9334 56.9188 20.9316 56.9021C20.9285 56.8726 20.9093 56.8445 20.885 56.8615V56.8615C20.8498 56.8862 20.8077 56.8765 20.7945 56.8357C20.7782 56.7852 20.7613 56.7347 20.7303 56.6953C20.6949 56.6505 20.6481 56.6148 20.5973 56.5772C20.5442 56.5377 20.4768 56.5213 20.4119 56.5345V56.5345C20.3288 56.5514 20.2424 56.5192 20.176 56.4664C20.129 56.429 20.0847 56.3948 20.0585 56.3345C20.0388 56.2893 19.9279 56.2546 19.8582 56.2159C19.767 56.1654 19.7702 56.0183 19.6823 56.0109C19.565 56.001 19.5092 55.9234 19.4371 55.8652C18.7637 55.3216 18.0925 54.7751 17.4235 54.2263V54.2263C17.311 54.1341 17.1576 53.9387 17.0507 53.8401C17.0457 53.8355 17.0401 53.8314 17.0338 53.8281C16.9531 53.7854 16.9041 53.6979 16.8473 53.6205C16.7505 53.4886 16.5919 53.4029 16.4641 53.2923C16.3788 53.2181 16.2803 53.1648 16.2349 53.0392C16.1986 52.9392 16.0742 52.8899 16.0021 52.7926C15.9153 52.6754 15.8297 52.5423 15.7086 52.447C15.6267 52.3823 15.5474 52.3213 15.5042 52.2122V52.2122C15.4374 52.044 15.2431 51.9278 15.1363 51.7817C15.0769 51.7005 15.0235 51.6144 14.9609 51.5357C14.6662 51.1653 14.4022 50.775 14.1543 50.3726C13.9465 50.0356 13.7331 49.7018 13.5287 49.3629C13.4624 49.2529 13.3996 49.1391 13.3418 49.0253C13.1334 48.6153 12.9129 48.2076 12.7518 47.7785C12.6085 47.3961 12.4472 47.0196 12.3201 46.6299C12.2526 46.4227 12.1416 46.2257 12.0632 46.0182C11.8784 45.5295 11.7075 45.0363 11.5617 44.5344C11.4339 44.0943 11.2943 43.6572 11.2525 43.1964C11.2417 43.0753 11.1959 42.9577 11.1772 42.8369C11.1561 42.6993 11.168 42.5535 11.1279 42.4231C11.0756 42.2533 11.0759 42.0771 11.0322 41.9103C10.9983 41.7808 11.1145 41.6574 11.0051 41.5229V41.5229C10.8534 41.3361 10.9741 41.0027 10.9377 40.7648C10.931 40.7205 10.9289 40.6754 10.9379 40.6287C10.972 40.4509 10.9109 40.2548 10.8916 40.0668C10.8723 39.8785 10.832 39.6894 10.8382 39.5017C10.8496 39.1564 10.7747 38.8166 10.7789 38.4758C10.7828 38.1507 10.7155 37.8234 10.7867 37.5016C10.8035 37.4254 10.7374 37.4087 10.7346 37.3494C10.7318 37.2876 10.7756 37.2431 10.7664 37.184C10.7288 36.944 10.7344 36.7015 10.7355 36.4601C10.7371 36.117 10.7483 35.7728 10.7472 35.4307C10.7453 34.8988 10.7956 34.3733 10.8492 33.8468C10.8841 33.5037 10.9311 33.162 10.9746 32.8199C11.0251 32.4226 11.0723 32.0249 11.1312 31.629C11.1764 31.3273 11.2417 31.0286 11.2903 30.7274C11.3288 30.4885 11.3581 30.2482 11.387 30.008C11.4269 29.6758 11.4786 29.3445 11.5206 29.0138C11.58 28.5429 11.673 28.0812 11.7839 27.6227C11.8398 27.3916 11.8942 27.1589 11.9805 26.9326C12.0345 26.7906 12.0838 26.6344 12.1163 26.4857C12.1826 26.1817 12.3255 25.914 12.4348 25.6301C12.4732 25.5303 12.5344 25.4472 12.5767 25.3552C12.6163 25.269 12.6627 25.1895 12.7062 25.1064C12.8364 24.8576 13.0129 24.6331 13.1002 24.3619C13.1058 24.3443 13.1151 24.3256 13.1281 24.3129C13.3538 24.0921 13.4478 23.7797 13.6658 23.5507C13.7402 23.4726 13.7981 23.382 13.8532 23.289C14.025 22.9988 14.2765 22.7288 14.4266 22.4267V22.4267C14.631 22.0157 14.9613 21.7021 15.2367 21.3467C15.511 20.9931 15.8011 20.6519 16.0823 20.3036C16.2816 20.0566 16.5374 19.8693 16.7716 19.6603C16.8221 19.6151 16.9028 19.5887 16.9465 19.525C17.0209 19.4161 17.1252 19.3599 17.2516 19.3379" fill="#DDA619"/>
<path fill-rule="evenodd" clip-rule="evenodd" d="M32.0226 45.9556H37.0513V47.0142H32.0226V45.9556Z" fill="white"/>
<path fill-rule="evenodd" clip-rule="evenodd" d="M35.1985 43.8381C35.3389 43.8381 35.4736 43.8939 35.5728 43.9932C35.6721 44.0924 35.7279 44.2271 35.7279 44.3675V46.4848C35.7279 46.6252 35.6721 46.7598 35.5728 46.8591C35.4736 46.9584 35.3389 47.0141 35.1985 47.0141C35.0581 47.0141 34.9235 46.9584 34.8242 46.8591C34.725 46.7598 34.6692 46.6252 34.6692 46.4848V44.3675C34.6692 44.2271 34.725 44.0924 34.8242 43.9932C34.9235 43.8939 35.0581 43.8381 35.1985 43.8381Z" fill="white"/>
<path fill-rule="evenodd" clip-rule="evenodd" d="M30.9639 35.8981C31.1043 35.8981 31.2389 35.9538 31.3382 36.0531C31.4375 36.1524 31.4932 36.287 31.4932 36.4274C31.4932 39.6754 33.9568 42.2501 36.9263 42.2501C38.5747 42.2501 40.06 41.4624 41.0615 40.2032C41.1048 40.1488 41.1584 40.1034 41.2192 40.0697C41.2801 40.0361 41.3469 40.0147 41.416 40.0069C41.4851 39.999 41.555 40.0049 41.6219 40.0241C41.6887 40.0432 41.7511 40.0754 41.8055 40.1187C41.8599 40.162 41.9052 40.2156 41.9389 40.2765C41.9726 40.3373 41.9939 40.4041 42.0018 40.4732C42.0096 40.5423 42.0038 40.6123 41.9846 40.6791C41.9654 40.7459 41.9332 40.8083 41.8899 40.8627C40.7047 42.3517 38.9251 43.3088 36.9263 43.3088C33.3099 43.3088 30.4346 40.1963 30.4346 36.4274C30.4346 36.287 30.4903 36.1524 30.5896 36.0531C30.6889 35.9538 30.8235 35.8981 30.9639 35.8981Z" fill="white"/>
<path fill-rule="evenodd" clip-rule="evenodd" d="M29.3633 29.5461C29.1484 29.5461 28.9367 29.5974 28.7457 29.6958C28.5547 29.7942 28.3899 29.9368 28.2652 30.1117C28.1404 30.2867 28.0593 30.4889 28.0285 30.7015C27.9977 30.9141 28.0181 31.1311 28.0881 31.3342L28.3909 32.2124C28.7037 33.1191 28.7349 34.0989 28.4819 35.0237L28.2199 35.9796C27.7424 37.7227 27.654 39.4875 28.5888 40.7781C29.9265 42.626 32.1481 43.8381 34.6693 43.8381C38.2868 43.8381 41.2813 41.3434 41.9434 38.0663C42.124 37.1706 42.3923 36.2041 42.9651 35.3799L36.5347 36.4158C35.9046 36.5174 35.2585 36.4268 34.6806 36.1558C34.1028 35.8848 33.62 35.446 33.2952 34.8966L30.5241 30.2083C30.4048 30.0066 30.235 29.8394 30.0315 29.7233C29.8279 29.6072 29.5976 29.5461 29.3633 29.5461V29.5461ZM27.0871 31.6793C26.5488 30.1162 27.7102 28.4874 29.3638 28.4874C30.215 28.4874 31.0031 28.9374 31.4361 29.6694L34.2072 34.3578C34.4237 34.7241 34.7456 35.0167 35.1308 35.1974C35.516 35.3781 35.9468 35.4386 36.3669 35.3709L43.0259 34.2979C43.8888 34.1587 44.4763 35.1496 43.9406 35.8404C43.4272 36.5026 43.1683 37.349 42.9815 38.2754C42.2166 42.0617 38.7759 44.8968 34.6693 44.8968C31.8035 44.8968 29.2648 43.5168 27.7313 41.399C26.5012 39.6998 26.7012 37.5163 27.1988 35.6996L27.4608 34.7442C27.6581 34.0248 27.6335 33.2627 27.3904 32.5575L27.0877 31.6793H27.0871Z" fill="white"/>
<path fill-rule="evenodd" clip-rule="evenodd" d="M29.9508 26.8994C30.6177 26.2325 31.7579 26.7046 31.7579 27.6479V28.4874H32.5974C33.5407 28.4874 34.0129 29.6276 33.3459 30.2946L32.3968 31.2437C32.297 31.3401 32.1633 31.3935 32.0245 31.3922C31.8857 31.391 31.7529 31.3354 31.6548 31.2372C31.5566 31.1391 31.501 31.0063 31.4998 30.8675C31.4986 30.7287 31.5519 30.595 31.6483 30.4952L32.5974 29.5461H31.7579C31.4771 29.5461 31.2079 29.4346 31.0093 29.236C30.8108 29.0375 30.6992 28.7682 30.6992 28.4874V27.6479L26.1544 32.1928H27.5232C27.6636 32.1928 27.7983 32.2485 27.8975 32.3478C27.9968 32.4471 28.0526 32.5817 28.0526 32.7221C28.0526 32.8625 27.9968 32.9971 27.8975 33.0964C27.7983 33.1957 27.6636 33.2514 27.5232 33.2514H26.1544C25.2111 33.2514 24.7389 32.1113 25.4059 31.4443L29.9508 26.8994Z" fill="white"/>
<path d="M29.9052 30.6048C29.9052 30.7452 29.8495 30.8798 29.7502 30.9791C29.6509 31.0783 29.5163 31.1341 29.3759 31.1341C29.2355 31.1341 29.1009 31.0783 29.0016 30.9791C28.9023 30.8798 28.8466 30.7452 28.8466 30.6048C28.8466 30.4644 28.9023 30.3297 29.0016 30.2305C29.1009 30.1312 29.2355 30.0754 29.3759 30.0754C29.5163 30.0754 29.6509 30.1312 29.7502 30.2305C29.8495 30.3297 29.9052 30.4644 29.9052 30.6048V30.6048Z" fill="white"/>
</svg>
